<?xml version="1.0" standalone="no"?><!DOCTYPE svg PUBLIC "-//W3C//DTD SVG 1.1//EN" "http://www.w3.org/Graphics/SVG/1.1/DTD/svg11.dtd"><svg t="1533455441032" class="icon" style="" viewBox="0 0 1024 1024" version="1.1" xmlns="http://www.w3.org/2000/svg" p-id="5084" xmlns:xlink="http://www.w3.org/1999/xlink" width="35" height="35"><defs><style type="text/css"></style></defs><path d="M511.4 179.2c49.5 0 97.5 8.7 142.6 25.8 43.3 16.4 82.1 39.8 115.4 69.5C802.3 303.9 828 338 846 375.7c18.3 38.7 27.6 79.7 27.6 121.8 0 42.2-9.3 83.2-27.6 121.9-17.9 37.8-43.7 71.9-76.6 101.3-33.3 29.8-72.1 53.2-115.4 69.6-45.1 17.1-93.1 25.8-142.6 25.8-36 0-71.9-4.8-107-14.4l-22.3-6.1-19.1 13c-21.1 14.4-44.7 25.6-70.1 33.1-13.5 4-25.4 6.4-35.3 7.7 11.8-11.2 22.9-24.1 33.2-38.6l28.3-40.1-39.6-29c-41.7-30.5-74.2-67.5-96.6-109.9-22.2-41.9-33.5-87.1-33.5-134.2 0-42.2 9.3-83.2 27.6-121.8 17.9-37.8 43.7-71.9 76.5-101.2 33.3-29.7 72.1-53.1 115.4-69.5 45.1-17.3 93-25.9 142.5-25.9m0-50c-227.2 0-412 165.2-412 368.4C99.4 609 154 711.7 250 782c-16.3 23.1-34.8 40.8-55 52.6-25.1 14.6-25.1 30.8-22.9 39.1 4.8 18 26.3 27.6 62 27.6 40.4 0 102-13.6 157.2-51.3 39.4 10.7 79.7 16.2 120.1 16.2 227.3 0 412.2-165.4 412.2-368.5s-185-368.5-412.2-368.5z" fill="#8a8a8a" p-id="5085"></path></svg>