<?xml version="1.0" standalone="no"?><!DOCTYPE svg PUBLIC "-//W3C//DTD SVG 1.1//EN" "http://www.w3.org/Graphics/SVG/1.1/DTD/svg11.dtd"><svg t="1533459367224" class="icon" style="" viewBox="0 0 1024 1024" version="1.1" xmlns="http://www.w3.org/2000/svg" p-id="16323" xmlns:xlink="http://www.w3.org/1999/xlink" width="50" height="50"><defs><style type="text/css"></style></defs><path d="M762.368 258.56c10.24-16.384 16.384-35.328 16.384-56.32 0-59.904-48.128-108.032-108.032-108.032-32.768 0-61.44 14.848-81.408 37.888-17.92-34.816-53.76-58.368-95.744-58.368s-77.824 24.064-95.744 58.88c-19.456-23.04-48.64-37.888-81.408-37.888-59.904 0-108.032 48.128-108.032 108.032 0 24.064 8.192 46.592 22.016 64.512-131.072 46.08-226.304 170.496-226.304 317.44 0 185.344 151.552 336.896 336.896 336.896h336.896c185.344 0 336.896-151.552 336.896-336.896 0.512-157.184-107.52-288.256-252.416-326.144z m-68.608 614.912h-365.568c-150.528 0-273.92-130.56-273.92-289.792 0-138.752 94.208-255.488 218.112-282.624 0 0 13.312 0.512 14.848 0.512 9.728 0 17.92-8.192 17.92-17.92 0-9.216-15.36-17.92-15.36-17.92-24.576-10.752-41.472-34.816-41.472-63.488 0-37.888 30.72-68.608 68.608-68.608 36.352 0 66.048 28.672 68.608 64.512 0.512 10.752 8.704 19.456 19.456 19.456 10.752 0 19.456-9.216 19.456-20.48 0-1.024-0.512-2.56-0.512-3.584h0.512c0-2.56 1.024-10.752 1.024-12.288 0-37.888 30.72-68.608 68.608-68.608s68.608 30.72 68.608 68.608c0 1.024 0.512 11.776 0.512 15.872v1.024c0 10.752 8.704 19.456 19.456 19.456 10.752 0 19.456-8.704 19.456-19.456 2.048-35.84 31.744-64.512 68.608-64.512 37.888 0 68.608 30.72 68.608 68.608 0 28.672-17.92 53.76-43.008 64v0.512c-6.656 1.536-12.288 7.168-12.288 14.848 0 8.704 6.656 15.36 15.36 15.36 1.536 0 2.56-0.512 3.584-0.512l16.896 0.512c138.24 14.336 247.296 138.24 247.296 287.744 0.512 158.72-122.88 288.768-273.408 288.768z" fill="" p-id="16324"></path><path d="M887.296 587.776c0-10.24-8.704-18.432-18.944-18.432s-18.944 8.192-18.944 18.432v9.728c0 94.72-77.312 172.032-172.032 172.032h-173.568c-8.704 0-15.36 7.168-15.36 15.36 0 8.704 7.168 15.36 15.36 15.36h176.128c114.176 0 207.872-93.696 207.872-207.872 0-1.024-0.512-3.072-0.512-4.608z" fill="" p-id="16325"></path></svg>