<?xml version="1.0" standalone="no"?><!DOCTYPE svg PUBLIC "-//W3C//DTD SVG 1.1//EN" "http://www.w3.org/Graphics/SVG/1.1/DTD/svg11.dtd"><svg t="1533376359993" class="icon" style="" viewBox="0 0 1024 1024" version="1.1" xmlns="http://www.w3.org/2000/svg" p-id="8144" xmlns:xlink="http://www.w3.org/1999/xlink" width="30" height="30"><defs><style type="text/css"></style></defs><path d="M505.362964 25.410389C237.26813 25.410389 19.911111 242.739651 19.911111 510.850156 19.911111 779.012298 237.271421 996.314092 505.362964 996.314092 773.455602 996.314092 990.814814 779.011197 990.814814 510.850156 990.814814 242.736355 773.453406 25.410389 505.362964 25.410389L505.362964 25.410389 505.362964 25.410389ZM680.525335 243.558137C728.67584 243.558137 767.766374 282.670746 767.766374 330.874584 767.766374 379.101494 728.67584 418.059196 680.525335 418.059196 632.32326 418.059196 593.236016 379.101494 593.236016 330.874584 593.236016 282.672943 632.32326 243.558137 680.525335 243.558137L680.525335 243.558137 680.525335 243.558137ZM330.249967 243.558137C378.400472 243.558137 417.491007 282.670746 417.491007 330.874584 417.491007 379.101494 378.400472 418.059196 330.249967 418.059196 282.047891 418.059196 242.959552 379.101494 242.959552 330.874584 242.959552 282.672943 282.048988 243.558137 330.249967 243.558137L330.249967 243.558137 330.249967 243.558137ZM505.362964 846.916912C330.091964 846.916912 186.326227 712.690822 170.839678 541.375812L839.881859 541.375812C824.39531 712.693018 680.629572 846.916912 505.358575 846.916912L505.358575 846.916912 505.362964 846.916912Z" p-id="8145" fill="#f4ea2a"></path></svg>