<?xml version="1.0" standalone="no"?><!DOCTYPE svg PUBLIC "-//W3C//DTD SVG 1.1//EN" "http://www.w3.org/Graphics/SVG/1.1/DTD/svg11.dtd"><svg t="1533447568364" class="icon" style="" viewBox="0 0 1025 1024" version="1.1" xmlns="http://www.w3.org/2000/svg" p-id="6266" xmlns:xlink="http://www.w3.org/1999/xlink" width="50.048828125" height="50"><defs><style type="text/css"></style></defs><path d="M448.88276445 961.28993604c-26.22928974 0-52.4585795-11.24112393-71.19378721-29.97633164l-284.77514618-284.7751462c-41.21745557-37.47041367-41.21745557-101.17011797 0-142.38757353l382.19822314-382.19822227c41.21745557-37.47041367 89.92899316-56.20562138 146.13461455-59.9526624h247.30473164c56.20562138 3.74704102 97.42307607 52.4585795 93.67603506 108.66420088v243.55769063c0 52.4585795-22.48224873 104.91715898-56.20562051 142.38757353l-382.19822314 374.70413936c-22.48224873 22.48224873-48.71153847 33.72337266-74.94082735 29.97633164z m168.6168624-828.09614971c-37.47041367 3.74704102-71.19378633 14.98816582-97.42307607 41.21745557l-382.19822315 378.45118125c-14.98816582 14.98816582-14.98816582 37.47041367 0 52.45857948l284.7751462 284.7751462c14.98816582 14.98816582 37.47041367 14.98816582 56.20562138 0l378.45118125-378.45118125c22.48224873-26.22928974 33.72337266-59.9526624 33.72337266-97.42307607v-243.55769063c0-22.48224873-3.74704102-37.47041367-26.22928975-37.47041455h-247.30473252z" fill="#1296db" p-id="6267"></path><path d="M707.42862089 444.19822227c-67.44674531 0-123.65236583-52.4585795-123.65236669-123.65236583s56.20562138-123.65236583 127.39940772-123.65236581c67.44674531 0 123.65236583 56.20562138 123.65236581 123.65236581s-56.20562138 123.65236583-127.39940683 123.65236583" fill="#1296db" p-id="6268"></path></svg>