<?xml version="1.0" standalone="no"?><!DOCTYPE svg PUBLIC "-//W3C//DTD SVG 1.1//EN" "http://www.w3.org/Graphics/SVG/1.1/DTD/svg11.dtd"><svg t="1533516444354" class="icon" style="" viewBox="0 0 1027 1024" version="1.1" xmlns="http://www.w3.org/2000/svg" p-id="7196" xmlns:xlink="http://www.w3.org/1999/xlink" width="30.087890625" height="30"><defs><style type="text/css"></style></defs><path d="M247.468518 127.354208a126.815317 125.374366 0 1 0 253.630633 0 126.815317 125.374366 0 1 0-253.630633 0Z" fill="#FF9900" p-id="7197"></path><path d="M473.521945 449.096089l20.38417 106.583441-19.154091 4.217414-18.509765 5.049183-17.830292 6.056676-17.162534 6.818154-16.682219 7.544486-15.768444 8.458259-15.463854 9.126017-14.550081 9.758629-14.233774 10.566967-13.261427 11.363589-12.722534 11.668181-12.171927 12.605384-11.597891 13.085701-10.777837 13.730027-10.004645 14.140055-9.383748 14.948392-8.76285 15.288128-7.931083 15.815305-7.286755 16.295622-6.630713 16.553352-5.7638 17.19768-5.072613 17.373406-4.18227 17.947442-3.491082 18.076308-2.553879 18.580055-1.839261 18.63863-1.112929 19.095516-0.14058 19.282957 0.820052 19.458683 1.593246 19.599263 2.577309 19.704699 3.397362 19.774989-106.595156 20.384171-4.217415-24.449291-3.010765-24.367284-2.026703-24.273565-0.820052-24.132984 0.152295-23.957258 1.101214-23.758103 2.261003-23.734673 3.409077-23.254356 4.334565-23.17235 5.459209-22.610029 6.349552-22.481163 7.462481-21.860266 8.329394-21.649396 9.407178-20.969923 10.473246-20.489606 11.31673-19.96243 12.359368-19.189236 13.390291-18.814356 14.19863-17.970872 14.995252-17.338261 15.979315-16.424487 16.963379-15.932455 17.935728-14.737522 18.486334-13.976043 19.634409-13.144276 20.14987-12.101637 21.286229-11.012139 21.778261-10.074935 22.668604-8.950291 23.359791-7.755357 24.015834-6.747863 24.683591-5.494354z m545.932615 387.205528l-106.571726 20.384171-4.123694-19.564119-5.201478-19.060371-5.634935-18.533194-6.478418-17.994303-7.286755-17.631137-7.860792-16.834513-8.6457-16.436202-9.172877-15.581005-9.700054-15.147547-10.402956-14.690661-10.871558-13.765173-11.539315-13.273142-12.183643-12.535093-12.394513-11.761901-13.202851-11.187864-13.566017-10.391241-13.917469-9.559474-14.468075-9.137731-14.760951-8.048233-15.264698-7.380476-15.7333-6.677573-15.979316-5.939526-16.635358-4.990607-16.811083-4.22913-17.010239-3.233351-17.584277-2.413299-17.935727-1.58153-18.275464-0.738048-18.77921 0.351451-18.861216 1.25351-19.118946 2.389868-19.575834 3.315357-20.38417-106.583441 24.671875-4.170555 24.648446-2.81161 24.367285-1.663536 23.886968-0.351451 23.781533 0.726333 23.465227 2.014987 23.10206 3.256781 22.96148 4.510291 22.340583 5.506069 21.719685 6.677573 21.4971 7.649922 20.829343 8.78628 20.360741 9.934355 19.856994 11.023853 19.130661 11.679896 18.59177 12.96855 17.806862 13.776888 17.033669 14.596941 16.635358 15.581004 15.581005 16.354197 14.936677 17.08053 14.280634 18.029447 13.366862 18.509765 12.663959 19.388392 11.726756 20.267021 10.766122 20.665332 9.99293 21.508815 8.985436 21.883696 8.165384 22.656889 7.333615 23.195781 6.056676 23.734672 5.388919 24.23842z" fill="#FF9900" p-id="7198"></path><path d="M461.279727 491.024219l-18.954936 4.463431-18.767495 3.514512-19.025227 2.589024-18.884645 1.476095-18.603485 0.585752-18.603485-0.410026-18.486334-1.194934-18.416044-2.155568-18.064593-2.99905-17.947443-3.924539-17.525701-4.732876-17.2914-5.447494-17.10396-6.337837-16.611927-7.11103-16.190187-8.059948-15.85045-8.704275-15.463854-9.348603-14.971822-10.250661-14.561796-10.859842-13.905753-11.551031-13.249711-12.218787-13.038841-12.886545-12.125067-13.612877-11.59789-14.15177-10.894988-14.960107-10.238946-15.276413-9.489183-16.049606-8.66913-16.635358-7.907652-16.893089-7.11103-17.631136-6.396412-18.064593-5.353774-18.392614 104.826185-28.022377 3.912823 13.425436 4.369711 12.92169 5.084327 12.476519 5.69351 12.300793 6.267547 11.656465 6.712718 11.269869 7.251611 11.058999 7.743642 10.356096 8.223958 10.121795 8.762851 9.582904 8.903431 9.219737 9.688338 8.76285 9.9695 8.259104 10.227231 7.767072 10.648972 7.146175 10.941848 6.818154 11.328444 6.185541 11.668181 5.529499 11.890766 5.142903 11.996202 4.557151 12.371083 4.053404 12.605384 3.338787 12.652244 2.717889 12.94512 2.167283 12.92169 1.499525 13.155991 0.937203 13.296571 0.152296 13.472297-0.468602 13.366862-1.171504 13.320001-1.698681 13.624593-2.460158 13.437151-3.209922 28.022378 104.8379z m268.989051-460.283952l4.451716 18.884646 3.596517 18.896361 2.272718 18.861215 1.640106 18.720635 0.632612 18.744066-0.445171 18.533194-1.429235 18.509765-1.991557 18.275463-3.233352 18.088023-3.783958 17.806862-4.791451 17.490556-5.69351 17.326545-6.384697 17.0571-7.15789 16.576783-8.118524 16.155041-8.76285 15.80359-9.407178 15.440424-10.309236 14.936677-11.023853 14.339209-11.609606 13.882324-12.195357 13.425437-13.03884 12.827969-13.694883 12.113352-14.22206 11.574461-14.842956 10.812982-15.534144 10.309236-16.119896 9.500898-16.518208 8.57541-16.963379 7.907653-17.701427 7.122744-18.146598 6.408128-18.462904 5.377203-28.022378-104.8379 13.507442-3.924538 12.991981-4.381425 12.535093-5.096043 12.394513-5.69351 11.914197-6.361267 11.340159-6.724434 10.941848-7.146174 10.613827-7.825648 10.192086-8.212243 9.653193-8.751136 9.196307-9.079156 8.903431-9.477468 8.329394-9.94607 7.731927-10.391241 7.228181-10.613827 6.876729-10.906703 6.232401-11.293299 5.588075-11.621321 5.201478-11.855621 4.604011-11.949342 3.912823-12.230502 3.397362-12.570239 2.952191-12.687389 2.014987-12.792825 1.745541-12.956835 0.773192-13.003695 0.187441-13.237996-0.328021-13.226281-0.948918-13.390292-1.968127-13.355146-2.343008-13.355147-3.186492-13.355146 104.8379-28.034093z" fill="#FF9900" p-id="7199"></path></svg>