<?xml version="1.0" standalone="no"?><!DOCTYPE svg PUBLIC "-//W3C//DTD SVG 1.1//EN" "http://www.w3.org/Graphics/SVG/1.1/DTD/svg11.dtd"><svg t="1533459439143" class="icon" style="" viewBox="0 0 1024 1024" version="1.1" xmlns="http://www.w3.org/2000/svg" p-id="18118" xmlns:xlink="http://www.w3.org/1999/xlink" width="50" height="50"><defs><style type="text/css"></style></defs><path d="M512.184481 21.787234C332.540869 21.787234 141.617021 274.851343 141.617021 550.641154 141.617021 826.426573 339.20841 1002.212766 511.008504 1002.212766 511.407867 1002.212766 511.792028 1002.165945 512.184481 1002.157167 512.184481 1002.157167 512.777303 1002.212766 513.175284 1002.212766 684.97676 1002.212766 882.382979 826.426573 882.382979 550.641154 882.381597 274.851343 690.328759 21.787234 512.184481 21.787234M526.137261 969.259622 511.186768 969.585906 510.02461 969.622484C369.490796 968.74313 175.870913 823.863128 175.870913 552.573978 175.870913 283.031835 361.026819 52.070123 512.603188 52.070123 584.662386 52.070123 667.317793 106.666235 733.711308 198.107478 806.93128 298.965576 848.931955 428.160571 848.931955 552.573978 848.931955 816.737572 665.453644 961.044016 526.137261 969.259622M264.612093 477.524445 297.915255 479.208535C306.013036 396.436476 340.014043 324.598564 373.811917 295.907585L354.120212 255.580149C311.009892 295.950018 273.163129 381.86932 264.612093 477.524445" p-id="18119"></path></svg>