<?xml version="1.0" standalone="no"?><!DOCTYPE svg PUBLIC "-//W3C//DTD SVG 1.1//EN" "http://www.w3.org/Graphics/SVG/1.1/DTD/svg11.dtd"><svg t="1533459451482" class="icon" style="" viewBox="0 0 1024 1024" version="1.1" xmlns="http://www.w3.org/2000/svg" p-id="18296" xmlns:xlink="http://www.w3.org/1999/xlink" width="50" height="50"><defs><style type="text/css"></style></defs><path d="M878.1 451.8C866.1 345 822.2 247 754.5 175.7 686.6 104.3 600.5 65 512 65s-174.6 39.3-242.5 110.7C201.8 246.9 157.9 345 145.9 451.8c-16.3 145.7 26.6 291.7 114.8 390.3 32.7 36.6 70.4 65.3 111.8 85.2 43.8 21 90.7 31.7 139.5 31.7s95.7-10.7 139.5-31.7c41.4-19.9 79-48.6 111.8-85.2 88.2-98.7 131.1-244.6 114.8-390.3z m-530.6 60.8l-64-2.3c4.3-121 77.1-203.3 80.2-206.8l47.6 42.8 0.1-0.1c-0.6 0.8-60.5 69.4-63.9 166.4z" fill="" p-id="18297"></path></svg>