<?xml version="1.0" standalone="no"?><!DOCTYPE svg PUBLIC "-//W3C//DTD SVG 1.1//EN" "http://www.w3.org/Graphics/SVG/1.1/DTD/svg11.dtd"><svg t="1533516426762" class="icon" style="" viewBox="0 0 1024 1024" version="1.1" xmlns="http://www.w3.org/2000/svg" p-id="6864" xmlns:xlink="http://www.w3.org/1999/xlink" width="30" height="30"><defs><style type="text/css"></style></defs><path d="M511.3 6.8c278.3 0 504 225.6 504.1 503.8v0.5c0 24.1-1.7 47.8-5 71L877.7 574c20.5-113.6-31.6-181.2-31.6-181.2 17.3-183.3-47.4-222.1-47.4-222.1-25.9 0-140.2 66.8-140.2 66.8-38.8-15.1-312.7 0-312.7 0-28-51.8-143.4-60.4-143.4-60.4L186.3 377l-7.6 27.7c-22.4 54-35.7 107.1-32.7 159.7l-135.1 7.7c0.2 2 0.5 3.9 0.8 5.9-2.9-22-4.5-44.4-4.5-67.1C7.2 232.5 233 6.8 511.3 6.8z m498.9 576.4c-0.4 3-0.9 5.9-1.4 8.9 0.6-2.9 1-5.9 1.4-8.9z m-2 13.1c-0.4 2.4-0.8 4.8-1.3 7.2 0.4-2.3 0.9-4.7 1.3-7.2z m-2.5 13.5c-0.4 1.8-0.7 3.7-1.1 5.5 0.4-1.9 0.7-3.7 1.1-5.5z m-2.7 12.9c-0.3 1.5-0.7 2.9-1 4.4 0.3-1.5 0.6-3 1-4.4z m-1.4 5.9c-2.7 11.1-5.6 22-9 32.8l-144.9-6.5c4.3-9.3 8.3-18.2 11.8-26.1 0.3-0.6 0.5-1.1 0.7-1.4 0.8-1.5 1.7-1.1 2.8-1 3.7 0.1 8.2 0.7 12.3 0.7l126.3 1.5z m-20.5 65.5c-0.5 1.2-1 2.4-1.4 3.6 0.4-1.2 0.9-2.4 1.4-3.6z m-4.3 10.7c-0.7 1.7-1.4 3.4-2.2 5.1 0.7-1.8 1.4-3.4 2.2-5.1z m-4.6 10.6c-5.7 12.9-12 25.6-18.8 37.9L819 715.4c3.9-7.9 8.9-18.3 14.3-29.6l-0.1 0.4 139 29.2z m-22.9 45.2c-0.5 0.8-1 1.7-1.5 2.5 0.5-0.8 1-1.6 1.5-2.5z m-5.8 9.9l-2.4 3.9 2.4-3.9z m-6 9.6c-1.1 1.7-2.2 3.5-3.3 5.2 1.1-1.7 2.2-3.4 3.3-5.2z m-6.2 9.6c-1.4 2.2-2.9 4.3-4.4 6.4 1.5-2.1 3-4.3 4.4-6.4z m-5.9 8.7c-91 130.8-242.3 216.5-413.7 216.6h-0.7c-215-0.2-398.5-134.9-470.8-324.5 1.2 3.2 2.5 6.4 3.8 9.6l134.1-27.5c5.1 9 10.8 18 17.2 27.1L65.4 746.1c7.3 13.7 15.1 27.1 23.6 40.1l129.9-57c9 10.1 18.9 20.3 29.9 30.4 277.8 190.8 493.6 31.6 549-17.2l127.6 56zM39.9 689.8c-2.9-7.6-5.6-15.3-8.1-23 2.6 7.7 5.3 15.4 8.1 23z m-8.3-23.7c-4.5-13.9-8.4-28.1-11.7-42.6l0.4 1.9 134.6-8v-0.1c2.6 9.3 5.9 18.5 9.8 27.8l1.8-0.1-138.2 10.4c1.1 3.6 2.2 7.1 3.3 10.7z m-16.2-64.2c-0.2-1.3-0.5-2.5-0.7-3.8 0.3 1.2 0.5 2.5 0.7 3.8z m-2-11.8c-0.3-1.7-0.5-3.4-0.8-5.1 0.3 1.7 0.6 3.4 0.8 5.1z m348-196.7c65.9 0 119.3 53.4 119.3 119.3 0 61.1-46 111.5-105.3 118.5 30.4 42.4 65.2 50.6 65.2 50.6 32.9 4.1 54.5-23.3 61.3-33.3-7.1-3.3-11.7-9-11.7-15.3 0-10.2 11.9-18.5 26.6-18.5 14.7 0 26.6 8.3 26.6 18.5 0 6.1-4.2 11.5-10.8 14.9 6.4 9.6 28.1 38 61.6 33.8 0 0 35.1-8.2 65.5-50.9-54.8-10.7-96.2-59.1-96.2-117.1 0-65.9 53.4-119.3 119.3-119.3S802.1 448 802.1 513.9s-53.4 119.3-119.3 119.3h-1.3C672.8 648.3 621 731 550.2 692c0 0-27.2-20.3-32.8-29.2-5.6 8.9-32.8 29.2-32.8 29.2-73.4 40.5-126.4-50-132-60.1-61.8-4.5-110.5-56-110.5-119 0-66.1 53.5-119.5 119.3-119.5z" fill="#FF0000" p-id="6865"></path><path d="M659.1 448.6h46.2v137.6h-46.2V448.6z m-320.2 0.6h46.2v137.6h-46.2V449.2z" fill="#FFFFFF" p-id="6866"></path></svg>