<?xml version="1.0" standalone="no"?><!DOCTYPE svg PUBLIC "-//W3C//DTD SVG 1.1//EN" "http://www.w3.org/Graphics/SVG/1.1/DTD/svg11.dtd"><svg t="1533210373410" class="icon" style="" viewBox="0 0 1024 1024" version="1.1" xmlns="http://www.w3.org/2000/svg" p-id="14223" xmlns:xlink="http://www.w3.org/1999/xlink" width="80" height="80"><defs><style type="text/css"></style></defs><path d="M511.7 957.3c-60.2 0-118.6-11.8-173.6-35.1-53.1-22.5-100.8-54.6-141.8-95.6-41-41-73.1-88.7-95.6-141.8-23.3-55-35.1-113.4-35.1-173.6 0-116 44.3-225.9 124.7-309.4 9.6-9.9 25.4-10.2 35.3-0.7s10.2 25.4 0.7 35.3c-71.4 74.2-110.7 171.7-110.7 274.7 0 218.4 177.7 396.1 396.1 396.1 218.4 0 396.1-177.7 396.1-396.1 0-218.4-177.7-396.1-396.1-396.1-62.9 0-123.1 14.3-178.8 42.6-12.3 6.2-27.4 1.3-33.6-11-6.2-12.3-1.3-27.4 11-33.6 62.8-31.8 130.6-48 201.4-48 60.2 0 118.6 11.8 173.6 35.1 53.1 22.5 100.8 54.6 141.8 95.6 41 41 73.1 88.7 95.6 141.8 23.3 55 35.1 113.4 35.1 173.6 0 60.2-11.8 118.6-35.1 173.6-22.5 53.3-54.7 101-95.6 142-41 41-88.7 73.1-141.8 95.6-55 23.2-113.4 35-173.6 35z" p-id="14224" fill="#8a8a8a"></path><path d="M287.2 760.7c-6.5 0-12.9-2.5-17.7-7.3-8.2-8.2-9.7-20.9-3.6-30.8l170.8-278.1c2.1-3.3 4.9-6.2 8.2-8.2L723 265.5c9.9-6.1 22.6-4.6 30.8 3.6s9.7 20.9 3.6 30.8L586.6 578c-2.1 3.3-4.9 6.2-8.2 8.2L300.3 757c-4.1 2.5-8.6 3.7-13.1 3.7z m189-284.9L363.3 659.7l183.8-112.9L660 362.9 476.2 475.8z" p-id="14225" fill="#8a8a8a"></path><path d="M511.7 511.3m-30.1 0a30.1 30.1 0 1 0 60.2 0 30.1 30.1 0 1 0-60.2 0Z" p-id="14226" fill="#8a8a8a"></path></svg>