<?xml version="1.0" standalone="no"?><!DOCTYPE svg PUBLIC "-//W3C//DTD SVG 1.1//EN" "http://www.w3.org/Graphics/SVG/1.1/DTD/svg11.dtd"><svg t="1533294298828" class="icon" style="" viewBox="0 0 1024 1024" version="1.1" xmlns="http://www.w3.org/2000/svg" p-id="60432" xmlns:xlink="http://www.w3.org/1999/xlink" width="32" height="32"><defs><style type="text/css"></style></defs><path d="M928.25 962L95.75 962c-11.25 0-22.5-11.25-22.5-22.5 0-191.25 168.75-241.875 247.5-264.375 16.875-5.625 28.125-11.25 33.75-11.25 67.5-33.75 73.125-56.25 73.125-61.875 0-5.625 0-5.625 0-5.625C371.375 562.625 343.25 472.625 326.375 438.875c0 0 0-5.625 0-5.625C287 416.375 281.375 348.875 281.375 320.75c0-33.75 5.625-45 22.5-56.25C309.5 152 399.5 62 512 62c112.5 0 202.5 84.375 202.5 196.875 16.875 11.25 28.125 16.875 28.125 50.625 0 33.75-11.25 101.25-45 118.125 0 0 0 5.625 0 5.625-11.25 39.375-39.375 123.75-101.25 163.125 0 0 0 5.625 0 11.25 0 11.25 28.125 39.375 73.125 61.875 11.25 5.625 22.5 11.25 45 16.875 84.375 22.5 236.25 73.125 236.25 264.375C950.75 950.75 939.5 962 928.25 962zM118.25 922.625l787.5 0c-11.25-140.625-129.375-180-208.125-202.5-22.5-5.625-39.375-11.25-50.625-16.875l0 0c-28.125-16.875-95.625-50.625-95.625-101.25 0-22.5 5.625-39.375 22.5-45 45-28.125 73.125-106.875 84.375-135C663.875 399.5 669.5 388.25 680.75 388.25c5.625-5.625 22.5-45 22.5-78.75 0-11.25 0-16.875 0-16.875 0 0-5.625 0-5.625-5.625 0 0-5.625 0-5.625-5.625-5.625-5.625-11.25-11.25-11.25-16.875l0-5.625C675.125 174.5 607.625 101.375 512 101.375c-90 0-168.75 73.125-168.75 163.125l0 5.625C343.25 281.375 343.25 287 337.625 292.625 320.75 298.25 320.75 298.25 320.75 320.75c0 33.75 11.25 67.5 16.875 73.125 11.25 0 16.875 11.25 22.5 28.125C377 455.75 405.125 534.5 450.125 562.625 461.375 568.25 472.625 579.5 472.625 602c0 33.75-33.75 67.5-95.625 101.25-11.25 5.625-22.5 11.25-45 16.875C258.875 737 129.5 776.375 118.25 922.625z" p-id="60433" fill="#8a8a8a"></path></svg>