<?xml version="1.0" standalone="no"?><!DOCTYPE svg PUBLIC "-//W3C//DTD SVG 1.1//EN" "http://www.w3.org/Graphics/SVG/1.1/DTD/svg11.dtd"><svg t="1533300899198" class="icon" style="" viewBox="0 0 1024 1024" version="1.1" xmlns="http://www.w3.org/2000/svg" p-id="77953" xmlns:xlink="http://www.w3.org/1999/xlink" width="40" height="40"><defs><style type="text/css"></style></defs><path d="M927.596653 836.185008c-0.593881-28.506307-1.781644-57.012614-2.969407-85.518921-1.187763-28.506307-2.375526-57.606496-3.563288-86.112803-1.187763-26.130781-1.781644-52.261563-2.969407-78.392344-1.187763-26.724663-2.375526-53.449326-3.563288-79.580108-1.187763-24.943019-1.781644-49.292156-2.969407-74.235174-1.187763-26.724663-2.375526-54.043207-3.563289-80.767871-0.593881-15.440916-2.375526-30.287951-8.314339-44.541104-14.847035-35.632884-40.383935-60.575903-78.392345-70.078005-17.816442-4.751051-36.226765-4.15717-54.637088-4.15717h-41.571698c1.781644-39.196172-3.563288-76.016819-20.191968-111.055821-16.628679-35.632884-41.571698-63.54531-73.641293-85.518922C599.18024 13.659272 563.547357 2.375526 524.945066 0.593881 470.307977-2.969407 421.015821 12.471509 378.256361 47.510512 320.649865 95.021024 296.300728 157.37857 299.270135 232.207627H232.161537c-21.37973 0.593881-41.571698 5.344933-59.38814 17.22256C135.95275 272.591562 118.136308 306.442801 116.354664 348.60838c-0.593881 20.785849-1.781644 40.977816-2.375525 61.763666-1.187763 27.912426-1.781644 55.23097-2.969407 82.549514l-3.563289 83.737277c-1.187763 25.5369-1.781644 51.0738-2.969407 76.6107-1.187763 25.5369-1.781644 51.667682-2.969407 77.204582-1.187763 24.349137-2.375526 49.292156-2.969407 73.641293-1.187763 27.318544-1.781644 55.23097-3.563288 82.549515-1.781644 26.130781 1.187763 51.0738 13.659272 74.235174 20.785849 38.602291 53.449326 59.38814 96.802668 62.357547 13.659272 1.187763 27.912426 0.593881 41.571698 0.593882h562.405683c23.161375 0 45.134986-5.344933 65.326954-17.816442 35.039002-22.567493 53.449326-54.637089 54.637089-96.208787 0.593881-24.349137-1.187763-49.292156-1.781645-73.641293zM413.889244 84.331158C470.307977 41.571698 545.730915 39.790054 605.119054 80.76787c58.200377 39.790054 74.235175 105.117007 68.296361 150.845875H352.125579c-7.126577-39.196172 5.938814-104.523126 61.763665-147.282587z m397.306655 887.85269H270.169946c-17.222561 0-34.445121 0.593881-52.261563 0.593881-35.039002 0.593881-62.951428-20.785849-70.671886-55.23097-2.375526-10.095984-1.781644-21.37973-1.187763-31.475714 1.187763-30.287951 2.969407-60.575903 4.15717-90.863853 1.781644-38.602291 2.969407-76.6107 4.15717-115.212992 1.187763-32.663477 2.375526-65.326954 3.563288-98.584312 1.187763-33.85124 2.969407-68.296361 4.15717-102.1476 1.187763-32.069595 2.375526-64.733072 4.15717-96.802668 0.593881-15.440916 0.593881-30.881833 2.969407-46.322749 4.15717-29.100188 30.287951-51.667682 59.388139-53.449326 5.344933-0.593881 10.689865-0.593881 16.034798-0.593881 42.165579 0 84.331158-0.593881 126.496738-0.593881H779.720185c11.283747 0 21.973612 1.187763 32.663477 4.751051 25.5369 9.502102 39.790054 28.506307 42.759461 54.637088 2.375526 20.191968 2.375526 40.977816 2.969407 61.169784 1.187763 24.349137 1.781644 48.698275 2.969407 73.641294 1.187763 27.318544 2.375526 55.23097 3.563288 82.549514 1.187763 26.724663 2.375526 54.043207 2.969407 80.76787 1.187763 27.912426 2.375526 55.23097 2.969407 83.143396 1.187763 26.130781 1.781644 51.667682 2.969407 77.798463 1.187763 34.445121 3.563288 69.484124 4.15717 103.929244 1.781644 39.196172-27.912426 68.296361-66.514717 68.296361z" fill="#f4ea2a" p-id="77954"></path><path d="M713.79935 518.45846c-14.847035-2.375526-27.318544 7.126577-29.69407 21.973612-0.593881 5.938814-1.781644 12.471509-2.969407 18.410323-18.410323 84.92504-101.553719 145.500942-188.854284 134.811078-44.541105-5.344933-80.76787-25.5369-110.46194-58.200377-23.755256-26.724663-36.820647-58.200377-41.571698-93.23938-1.781644-15.440916-14.253154-25.5369-29.69407-23.161374-13.065391 1.781644-23.161375 15.440916-21.37973 28.506307 1.187763 6.532695 2.375526 13.659272 3.563288 20.191967 8.908221 43.947223 27.912426 82.549514 60.575903 114.025229 19.004205 18.410323 40.383935 32.069595 64.139191 43.353342 30.287951 14.253154 61.763665 22.567493 99.178193 22.567493 11.283747 0 26.724663-1.781644 42.165579-5.344933 36.226765-8.31434 67.702479-26.130781 96.208787-48.698274 28.506307-23.161375 49.886037-51.667682 63.545309-86.112803 7.720458-19.004205 11.877628-38.602291 14.253154-58.794259 3.563288-14.847035-5.344933-28.506307-19.004205-30.287951z" fill="#f4ea2a" p-id="77955"></path></svg>