<?xml version="1.0" standalone="no"?><!DOCTYPE svg PUBLIC "-//W3C//DTD SVG 1.1//EN" "http://www.w3.org/Graphics/SVG/1.1/DTD/svg11.dtd"><svg t="1533448826625" class="icon" style="" viewBox="0 0 1024 1024" version="1.1" xmlns="http://www.w3.org/2000/svg" p-id="29204" xmlns:xlink="http://www.w3.org/1999/xlink" width="50" height="50"><defs><style type="text/css"></style></defs><path d="M0 512c0 281.6 230.4 512 512 512s512-230.4 512-512S793.6 0 512 0 0 230.4 0 512z" fill="#007AFF" p-id="29205"></path><path d="M599.04 542.72c0-46.08 71.68-76.8 71.68-189.44C675.84 261.12 614.4 204.8 537.6 204.8S399.36 261.12 399.36 353.28c0 112.64 71.68 143.36 71.68 189.44 0 76.8-168.96 56.32-168.96 133.12v56.32h460.8v-56.32c5.12-76.8-163.84-56.32-163.84-133.12z m-61.44 158.72l-40.96-56.32 25.6-97.28h25.6l25.6 97.28-35.84 56.32z" fill="#FFFFFF" p-id="29206"></path></svg>