<?xml version="1.0" standalone="no"?><!DOCTYPE svg PUBLIC "-//W3C//DTD SVG 1.1//EN" "http://www.w3.org/Graphics/SVG/1.1/DTD/svg11.dtd"><svg t="1533516349326" class="icon" style="" viewBox="0 0 1024 1024" version="1.1" xmlns="http://www.w3.org/2000/svg" p-id="5810" xmlns:xlink="http://www.w3.org/1999/xlink" width="30" height="30"><defs><style type="text/css"></style></defs><path d="M158.643148 65.38645h714.648146c21.622394 0 39.306645 17.680097 39.306645 39.302491v707.457298c0 21.622394-17.684252 39.306645-39.306645 39.306645H158.643148c-21.626548 0-39.302491-17.684252-39.302491-39.306645V104.688941c0-21.622394 17.675943-39.302491 39.302491-39.302491z m-10.601412-62.312373c-49.696195 0-90.344633 40.648438-90.344633 90.348787v722.79445c0 49.708657 40.648438 90.357095 90.344633 90.357096h731.06538c49.696195 0 90.352941-40.648438 90.352941-90.357096V93.41871c0-49.696195-40.656746-90.348787-90.352941-90.348787H148.041736z" fill="#1afa29" p-id="5811"></path><path d="M174.736357 144.46916h671.029485v306.755505H174.736357zM278.84787 744.666093c38.280568 0 69.499067-31.222653 69.499067-69.499067s-31.222653-69.494913-69.499067-69.494912-69.499067 31.222653-69.499067 69.494912c0 38.276414 31.222653 69.499067 69.499067 69.499067zM754.029566 744.666093c38.280568 0 69.499067-31.222653 69.499067-69.499067s-31.222653-69.494913-69.499067-69.494912-69.494913 31.222653-69.494913 69.494912c-0.004154 38.276414 31.218499 69.499067 69.494913 69.499067zM666.023724 906.570256h117.433899l55.117371 117.429744H757.095335zM358.877728 906.570256H241.447984L186.326458 1024h81.47966z" fill="#1afa29" p-id="5812"></path></svg>