<?xml version="1.0" standalone="no"?><!DOCTYPE svg PUBLIC "-//W3C//DTD SVG 1.1//EN" "http://www.w3.org/Graphics/SVG/1.1/DTD/svg11.dtd"><svg t="1533516507908" class="icon" style="" viewBox="0 0 1024 1024" version="1.1" xmlns="http://www.w3.org/2000/svg" p-id="11075" xmlns:xlink="http://www.w3.org/1999/xlink" width="30" height="30"><defs><style type="text/css"></style></defs><path d="M117.109874 296.39088s16.75372-68.128195 65.893258-84.881914l496.99518 8.935594s55.840195 27.920097 67.010727 67.010726l2.234937 138.487172 101.63148 237.887871s4.46572 5.587343 6.700658 97.16576c2.234937 91.582572 6.700657 259.10731 6.700657 259.107311h-78.177104l-45.22632-56.405161-586.907781-0.552503-60.866726 60.858418H18.830799v-325.553071l98.283229-231.183059V296.39088h-0.004154z m16.75372 431.097769l-56.957663 78.177104 734.883051-11.166378-63.662475-63.65832-614.262913-3.352406zM177.419943 274.053972l1.117469 120.615983h416.58314v62.545006H175.185006L102.591091 643.728357v20.101972h679.038702l-81.529509-206.615368-10.048909-151.888486-26.237663-26.250126-486.393769-5.022377zM1008.330515 213.374183c-6.031838 0.88899-8.283391 2.1477-14.954969 3.701355-44.079773 10.264925-94.652495-5.637193-125.011084-38.160098-28.784162-30.828008-52.105606-85.434418-29.419748-138.678264L857.999838 3.069923c-11.461323 2.542345-15.349615 6.567724-24.62585 12.87789-25.51484 17.360227-45.587732 45.749744-54.843197 77.18426-31.588219 107.247903 81.438118 206.623675 186.089671 155.735237 12.171684-5.919675 35.75484-19.096665 43.710053-35.493127z" fill="#1afa29" p-id="11076"></path></svg>