<?xml version="1.0" standalone="no"?><!DOCTYPE svg PUBLIC "-//W3C//DTD SVG 1.1//EN" "http://www.w3.org/Graphics/SVG/1.1/DTD/svg11.dtd"><svg t="1533516385627" class="icon" style="" viewBox="0 0 1025 1024" version="1.1" xmlns="http://www.w3.org/2000/svg" p-id="6395" xmlns:xlink="http://www.w3.org/1999/xlink" width="30.029296875" height="30"><defs><style type="text/css"></style></defs><path d="M82.777496 109.705366h868.185496v795.835317H82.777496V109.705366zM2.081301 45.705366v914.302959c0 12.904065 10.548033 23.447935 23.447935 23.447935h976.105105c12.904065 0 23.447935-10.54387 23.447935-23.447935V45.705366H2.081301z" fill="#FF0000" p-id="6396"></path><path d="M63.300683 755.279089h926.620097v50.084423H63.300683zM298.221268 192.620228c88.076488 117.930667 125.098667 208.542179 198.772553 231.307447 60.43265 18.665106 151.556163-40.052553 226.362277-194.930472 33.646309-69.665301 105.813333-63.39226 84.579902 9.278439-27.094374 92.759415-85.724618 163.407089-150.428098 204.429529-140.017431 88.750829-323.559024 46.154927-405.599739-172.252618-5.115837-13.628358-13.411902-46.209041-7.609236-69.428033 5.802667-23.223154 36.164683-32.189398 53.922341-8.404292z" fill="#FF0000" p-id="6397"></path></svg>