<?xml version="1.0" standalone="no"?><!DOCTYPE svg PUBLIC "-//W3C//DTD SVG 1.1//EN" "http://www.w3.org/Graphics/SVG/1.1/DTD/svg11.dtd"><svg t="1533450047337" class="icon" style="" viewBox="0 0 1024 1024" version="1.1" xmlns="http://www.w3.org/2000/svg" p-id="38594" xmlns:xlink="http://www.w3.org/1999/xlink" width="50" height="50"><defs><style type="text/css"></style></defs><path d="M128.512 864.768c8.192 5.632 6.144 8.192 23.552 15.36 8.192 3.072 20.992 9.216 30.208 10.24v4.096c-17.92 4.096-79.36-36.352-79.36 8.192 0 26.112 43.008 14.336 47.104 14.336-1.024 12.288-25.088 15.36-25.088 30.72 0 12.288 24.064 26.624 46.592-6.144 6.144-8.704 13.824-23.552 16.384-33.792 7.168 5.12 10.24 13.312 15.872 23.552 2.56 4.608 4.096 7.68 6.656 12.8 7.68 13.312 20.48 37.376 29.184 49.152 5.12 7.168 5.12 8.704 14.848 8.704 28.672 0 73.216-125.952 74.24-139.264-19.968 0-36.352-3.072-57.344-3.072 0 26.624-6.144 67.072-15.36 92.672-2.048 5.12-3.584 7.168-4.608 11.776-11.776-0.512-20.992-18.944-27.136-27.648-9.216-14.336-24.576-41.472-33.792-49.664s-40.96-31.232-43.52-40.448c-11.776-1.024-13.824 10.24-18.432 18.432zM942.592 581.12s-0.512 0 0 0z m-29.184-43.52l1.536 23.552c-7.68-5.632-5.632-32.256-16.384-33.28-2.56-0.512-29.184 12.288-1.024 45.568 5.632 6.656 12.8 11.264 17.408 18.432-48.64 0-115.2 18.944-157.696 44.032-10.24 6.144-32.256 33.792-40.96 44.032-3.072 3.584-5.12 5.12-8.192 8.704l-23.552 26.624c-3.584 3.584-4.608 4.608-7.68 8.704l-71.168 80.896c-3.584 4.096-6.656 4.608-8.192 10.24 31.744-14.848 53.248-25.088 80.896-52.736 3.584-3.584 5.12-4.608 9.216-7.68l81.92-84.992c35.328-32.768 98.304-67.584 151.04-67.072 19.456 0 20.48 3.072 32.256-2.56 13.824-6.656 47.616-20.48 47.616-35.84 0-23.552-14.336-19.456-28.672-9.216-10.24 7.68-18.432 19.456-27.136 25.6 0-6.656 4.096-18.432 5.632-25.088 3.584-13.312 9.728-28.16 2.56-41.472-7.68-14.336-39.424-13.312-39.424 23.552z" fill="#490511" p-id="38595"></path><path d="M730.624 523.776c14.848-42.496 23.04-52.224 36.864-107.008 4.608-19.456 8.704-39.424 11.264-59.904 1.024-8.704 4.096-67.072 4.096-68.096-6.656-17.408-10.24-40.448-35.328-54.272-12.288-6.656-43.008-9.728-45.568 10.752-1.024 6.656 3.072 10.752 0.512 17.408-4.608 11.264-55.296 105.984-70.144 109.568l84.992 132.096c2.56 3.584 4.096 6.144 6.144 9.216l5.12 7.68c2.56 3.072 0.512 0.512 2.048 2.56z" fill="#FCCA00" p-id="38596"></path><path d="M730.624 523.776c3.072 5.632 7.68 14.848 12.288 17.92 4.096-8.704 15.36-45.568 18.432-56.832 10.24-34.304 23.552-89.088 25.6-125.44 1.024-13.312 0.512-40.96-1.024-54.272-1.024-6.144-2.56-10.752-2.56-15.872-0.512 0.512-3.072 58.88-4.096 68.096-2.56 20.48-6.656 40.448-11.264 59.904-14.336 54.272-22.528 63.488-37.376 106.496z" fill="#F8B300" p-id="38597"></path><path d="M148.992 34.816c0 7.68 3.072 9.728 6.144 13.824-9.216 2.048-19.456 8.704-27.136 13.824-19.456 12.8-24.576 36.352-9.216 36.352 14.848 0 30.208-7.68 48.128-7.68-3.072 4.096-19.968 15.872-25.6 20.48l-29.696 29.696-0.512 0.512c-7.168 7.68-12.8 15.872-18.944 24.576-2.048 2.56-3.072 4.608-4.608 7.168-20.48 34.304-29.184 65.536-35.328 104.448-1.024 6.144-1.024 13.824-2.048 20.992-3.584 24.576-4.608 67.072-0.512 91.648 1.536 9.728 1.024 22.528 3.584 32.768l27.136 119.808L117.76 640c2.048 4.608 6.656 12.8 7.68 17.408-4.608-3.072-9.728-6.144-14.848-9.216-13.824-6.656-30.208-9.728-41.472 2.56-8.192 9.216-8.704 23.552-1.536 32.768l10.752 11.264c-5.12 0-10.24-0.512-14.336 1.024-22.528 8.704-27.648 38.912-1.536 56.832 4.096 2.56 2.048 0 3.584 3.584-5.12 0-6.144-0.512-9.728 1.024-14.848 7.168-14.848 25.6-5.12 37.888 4.096 5.12 8.704 6.656 13.824 10.24l56.32 29.184c19.968 9.216 41.472 16.384 62.464 23.04l70.144 15.36c11.264 1.536 32.768 4.608 44.544 5.12 12.8 0 22.528 2.048 35.328 2.048l84.992-3.584c2.56 0 7.168-1.024 9.216-1.536 7.68-1.024 13.824-1.024 20.48-2.56l30.208-5.12c18.432-2.56 47.104-9.728 64.512-16.384l9.216-3.072c21.504-8.704 44.032-16.896 64.512-28.672l22.016-13.312c13.312-8.192 25.088-18.944 36.864-29.696l13.824-13.312 1.536-1.536 4.096-4.608c16.896-18.432 31.744-38.4 44.032-60.416l18.432-39.936 8.192-26.624c1.024-3.584 1.536-4.608 2.56-9.216 4.608-25.088 7.68-47.104 7.68-73.728 0-9.728 0-17.92-1.024-27.648l-11.264-61.952c-1.024-4.096-2.048-8.192-3.072-11.776-3.584-10.752-6.656-22.528-10.752-33.28-1.536-3.072-3.072-7.168-4.096-10.752l-13.312-30.72c-1.024-2.048-1.024-2.56-2.048-4.608l-14.848-29.184c-1.024-2.048 0 0-1.536-2.56-12.8-24.576-28.672-47.104-45.056-69.12-1.536-2.048-2.048-3.072-3.584-4.608l-14.848-18.944-0.512-0.512c-39.424-46.592-77.312-83.456-125.44-120.32-6.144-4.608-11.776-8.192-17.92-12.288-14.336-10.24-29.696-19.456-45.568-28.16-35.328-19.456-59.904-28.672-99.328-34.304-19.968-3.072-58.88-5.632-77.312-1.024L253.44 51.2c-8.192 2.048-23.04 8.192-29.184 9.728-4.096-6.144-9.216-10.752-14.848-15.36-13.312-11.264-32.768-27.648-51.712-17.92-3.072 0-8.704 4.608-8.704 7.168z" fill="#FEE200" p-id="38598"></path><path d="M472.064 133.632c-3.072-12.288-20.48-17.408-33.28-11.264-11.776 5.632-21.504 20.992-13.824 32.256 0-11.264 1.024-22.016 14.848-26.624 13.824-5.632 23.552-0.512 32.256 5.632zM472.064 133.632l0.512 3.072-0.512-3.072zM215.552 239.616c-4.096-17.408-36.352-19.968-47.104 0-3.584 7.168-5.12 13.824-0.512 20.48 0-16.384 2.56-22.528 14.848-27.136 15.36-5.632 23.552 0.512 32.768 6.656zM215.552 239.616l0.512 3.072-0.512-3.072z" fill="#030000" p-id="38599"></path><path d="M373.248 324.608c2.048 8.704 11.264 16.384 16.384 22.016 24.064 27.648 54.784 0 27.136-33.792l-4.096-4.096c0-0.512-0.512-0.512-0.512-0.512-18.944-2.048-33.792 3.584-38.912 16.384z" fill="#EE807B" p-id="38600"></path><path d="M370.176 322.048c2.56 4.096 1.024 1.536 3.072 3.072 5.12-13.312 19.968-19.456 38.912-16.384l-3.072-4.608v-5.632c0.512-2.56 4.096-6.144 3.584-15.36-0.512-8.704-2.56-10.752-6.656-16.384-29.696-3.584-39.936 47.616-35.84 55.296z" fill="#57090E" p-id="38601"></path><path d="M382.464 267.776l-4.096 5.12c-8.192 9.216-13.824 35.328-14.336 34.304 0 0-0.512 0.512-0.512 1.024-7.168-16.384 6.144-31.744 7.168-34.816-20.48 12.8-11.776 45.056-4.096 51.712 0.512-3.584-4.608-1.536 3.584-2.56-4.608-7.168 5.632-58.88 35.328-55.296 4.096 5.632 6.656 8.192 6.656 16.384 0.512 9.216-3.072 12.8-3.584 15.36v5.632c2.048-3.584-4.096-2.56 4.608-3.072 2.048-5.632 5.632-6.656 5.632-16.384 0-7.168-3.072-14.336-5.632-18.432-3.072-4.096-6.144-6.144-9.728-7.168h-4.608c-5.632 1.024-11.776 4.608-16.384 8.192z" fill="#8F1C21" p-id="38602"></path><path d="M412.16 308.736s0.512 0 0.512 0.512l4.096 4.096c27.648 34.304-3.072 61.952-27.136 33.792-5.12-6.144-14.336-13.312-16.384-22.016-2.048-1.536-0.512 1.024-3.072-3.072-8.704 1.024-3.584-1.024-3.584 2.56l1.536 6.144c1.024 2.048 1.024 1.024 2.048 2.048 4.096 4.608 7.168 10.24 11.264 14.336 3.072 3.072 9.216 9.728 12.8 12.288 11.776 8.192 29.184 2.56 35.84-5.12 6.144-7.168 3.072-20.992-1.024-29.696-4.096-9.728-8.192-17.408-15.872-23.552-8.704 0.512-2.56-0.512-4.608 3.072l3.584 4.608z" fill="#EC6D36" p-id="38603"></path><path d="M430.08 354.816c-7.168 7.68-24.064 13.312-35.84 5.12-3.584-2.56-9.728-9.216-12.8-12.288-4.096-4.096-7.168-9.728-11.264-14.336 2.048 8.704 15.872 27.136 22.528 31.744 2.56 2.048 5.632 3.072 9.216 3.584h4.608c2.56 0 5.12-1.024 7.68-1.536 6.144-2.048 13.824-5.632 15.872-12.288z" fill="#250103" p-id="38604"></path><path d="M370.688 273.408c-1.024 3.072-14.336 18.432-7.168 34.816l0.512-1.024c0.512 1.024 6.144-25.088 14.336-34.304l4.096-5.12c-6.144 0.512-7.68 2.56-11.776 5.632z" fill="#E6870F" p-id="38605"></path><path d="M308.736 619.52c0 47.104 13.312 89.088 58.368 107.52 27.648 11.264 50.176 15.36 80.384 14.848 38.4-0.512 80.896-6.144 116.224-17.92 36.352-12.288 71.68-27.648 96.256-57.856 10.24-12.8 46.08-64.512 13.312-75.776-15.36-5.12-31.744-1.024-42.496-1.024-5.12 0-10.752-0.512-15.36 0-107.008 8.192-119.296-24.064-171.008-34.816-26.624-5.632-91.648-12.288-115.2 9.216-12.8 11.776-20.48 37.888-20.48 55.808z" fill="#F8B100" p-id="38606"></path><path d="M436.736 732.672c55.808 0 103.424-6.656 155.648-23.552 9.216-3.072 15.36-5.632 23.04-8.704s14.336-6.144 21.504-10.752c17.92-10.752 12.8-7.68 28.672-19.968 31.232-24.576 50.176-78.336 5.12-84.992-34.304-4.608-91.648 10.752-151.552-3.584-48.128-11.264-62.464-44.544-135.168-45.056-57.856-0.512-91.648 66.56-74.24 119.296 17.408 54.272 70.144 77.312 126.976 77.312z" fill="#FCCA00" p-id="38607"></path><path d="M489.472 201.728c15.872-3.584 35.84 11.264 44.032 32.768s1.536 41.984-14.336 45.568c-15.872 3.584-35.84-11.264-44.032-32.768-8.192-21.504-2.048-41.984 14.336-45.568z" fill="#030000" p-id="38608"></path><path d="M491.008 206.336c14.336-3.072 32.256 9.728 39.424 29.184s1.536 37.888-12.8 40.96c-14.336 3.072-32.256-9.728-39.424-29.184-7.68-19.968-2.048-37.888 12.8-40.96z" fill="#301B11" p-id="38609"></path><path d="M476.744056 240.200293a17.92 11.776 60.528 1 0 20.504283-11.587541 17.92 11.776 60.528 1 0-20.504283 11.587541Z" fill="#221616" p-id="38610"></path><path d="M478.542814 239.191224a14.848 9.728 60.528 1 0 16.93832-9.572316 14.848 9.728 60.528 1 0-16.93832 9.572316Z" fill="#FFFFFF" p-id="38611"></path><path d="M233.472 315.392c15.872-3.584 35.84 11.264 44.032 32.768s1.536 41.984-14.336 45.568-35.84-11.264-44.032-32.768c-8.192-20.992-1.536-41.472 14.336-45.568z" fill="#030000" p-id="38612"></path><path d="M235.008 319.488c14.336-3.072 32.256 9.728 39.424 29.184s1.536 37.888-12.8 40.96-32.256-9.728-39.424-29.184c-7.168-19.456-1.536-37.376 12.8-40.96z" fill="#301B11" p-id="38613"></path><path d="M220.740606 353.892133a17.92 11.776 60.528 1 0 20.504282-11.587541 17.92 11.776 60.528 1 0-20.504282 11.587541Z" fill="#221616" p-id="38614"></path><path d="M222.529287 352.885715a14.848 9.728 60.528 1 0 16.938321-9.572316 14.848 9.728 60.528 1 0-16.938321 9.572316Z" fill="#FFFFFF" p-id="38615"></path><path d="M595.456 255.488c15.872-4.608 30.72 0 33.28 10.24 2.048 9.728-9.216 21.504-25.088 26.112-15.872 4.608-30.72 0-33.28-10.24-2.048-9.728 9.216-20.992 25.088-26.112zM204.288 434.176c15.872-4.608 30.72 0 33.28 10.24 2.048 9.728-9.216 21.504-25.088 26.112-15.872 4.608-30.72 0-33.28-10.24-2.048-10.24 9.216-22.016 25.088-26.112z" fill="#ED797B" p-id="38616"></path></svg>