<?xml version="1.0" standalone="no"?><!DOCTYPE svg PUBLIC "-//W3C//DTD SVG 1.1//EN" "http://www.w3.org/Graphics/SVG/1.1/DTD/svg11.dtd"><svg t="1533300644684" class="icon" style="" viewBox="0 0 1024 1024" version="1.1" xmlns="http://www.w3.org/2000/svg" p-id="76471" xmlns:xlink="http://www.w3.org/1999/xlink" width="40" height="40"><defs><style type="text/css"></style></defs><path d="M173.568 523.776c-14.848-6.656-26.624 1.536-26.624 17.408v152.576c0 15.872 11.264 35.328 25.088 43.52l132.096 76.288c13.824 8.192 26.624 1.536 28.16-14.336l17.92-166.912c1.536-15.872-8.704-34.304-23.552-40.448l-153.088-68.096zM332.288 224.768c-1.536-15.872-14.336-22.528-28.16-14.336l-132.096 76.288c-13.824 8.192-25.088 27.648-25.088 43.52v152.576c0 15.872 11.776 23.552 26.624 17.408l153.6-67.584c14.848-6.656 25.088-24.576 23.552-40.448l-18.432-167.424zM850.432 500.224c14.848 6.656 26.624-1.536 26.624-17.408v-152.576c0-15.872-11.264-35.328-25.088-43.52L719.872 210.432c-13.824-8.192-26.624-1.536-28.16 14.336l-17.92 166.912c-1.536 15.872 8.704 34.304 23.552 40.448l153.088 68.096zM670.72 212.992c12.8-9.216 12.288-23.552-1.536-31.744l-132.096-76.288c-13.824-8.192-36.352-8.192-50.176 0l-132.096 76.288c-13.824 8.192-14.848 22.016-1.536 31.744l135.68 99.328c12.8 9.216 33.792 9.216 46.592 0l135.168-99.328zM691.712 799.232c1.536 15.872 14.336 22.528 28.16 14.336l132.096-76.288c13.824-8.192 25.088-27.648 25.088-43.52v-152.576c0-15.872-11.776-23.552-26.624-17.408l-153.6 67.584c-14.848 6.656-25.088 24.576-23.552 40.448l18.432 167.424zM353.28 811.008c-12.8 9.216-12.288 23.552 1.536 31.744l132.096 76.288c13.824 8.192 36.352 8.192 50.176 0l132.096-76.288c13.824-8.192 14.848-22.016 1.536-31.744l-135.68-99.328c-12.8-9.216-33.792-9.216-46.592 0l-135.168 99.328z" fill="#FEC504" p-id="76472"></path><path d="M146.432 512h0.512v-0.512zM329.216 828.416h0.512l-0.512-0.512zM694.784 828.416v-0.512l-0.512 0.512zM694.784 195.584h-0.512 0.512zM877.056 512h0.512-0.512zM329.216 195.584v0.512l0.512-0.512z" fill="#FFFFFF" p-id="76473"></path><path d="M670.208 420.864l24.576-225.28h-0.512L512 329.216l-182.272-133.632-0.512 0.512 24.576 224.256-206.848 91.136v0.512l206.848 91.136-24.576 224.768 0.512 0.512 182.272-133.632 182.272 133.632 0.512-0.512-24.576-224.768 206.848-91.136z" fill="#FFFFFF" p-id="76474"></path></svg>