<?xml version="1.0" standalone="no"?><!DOCTYPE svg PUBLIC "-//W3C//DTD SVG 1.1//EN" "http://www.w3.org/Graphics/SVG/1.1/DTD/svg11.dtd"><svg t="1533455773578" class="icon" style="" viewBox="0 0 1024 1024" version="1.1" xmlns="http://www.w3.org/2000/svg" p-id="12241" xmlns:xlink="http://www.w3.org/1999/xlink" width="35" height="35"><defs><style type="text/css"></style></defs><path d="M904.650752 861.519872c0-38.672384-29.749248-74.366976-65.441792-86.267904l-172.529664-68.415488s-32.720896-11.900928-44.617728-26.769408c-8.923136-8.923136-8.923136-26.775552 0-50.567168 5.94944-23.799808 95.186944-124.93824 95.186944-214.173696 0-139.808768-92.2112-252.844032-205.246464-252.844032-113.035264 0-205.248512 113.037312-205.248512 252.844032 0 86.263808 80.310272 190.373888 89.233408 208.224256 8.92928 17.84832 5.951488 47.593472 0 56.518656-11.896832 11.89888-53.538816 26.769408-53.538816 26.769408l-157.65504 68.415488c-35.694592 14.874624-65.441792 47.59552-65.441792 86.267904h785.299456z" p-id="12242" fill="#1afa29"></path></svg>