<?xml version="1.0" standalone="no"?><!DOCTYPE svg PUBLIC "-//W3C//DTD SVG 1.1//EN" "http://www.w3.org/Graphics/SVG/1.1/DTD/svg11.dtd"><svg t="1533455576707" class="icon" style="" viewBox="0 0 1024 1024" version="1.1" xmlns="http://www.w3.org/2000/svg" p-id="6566" xmlns:xlink="http://www.w3.org/1999/xlink" width="35" height="35"><defs><style type="text/css"></style></defs><path d="M687.43190674 402.83201622l189.30904805 0c14.86961807 0 26.06702695 7.55397862 26.06702695 23.50556279 0 15.95608154-12.93053291 23.51006016-27.79925185 23.51006015L687.43190674 449.84763916c-14.87591455 0-26.94393193-7.55397862-26.94393194-23.51006015C660.48797481 410.38509482 672.55599307 402.83201622 687.43190674 402.83201622z" p-id="6567" fill="#1afa29"></path><path d="M902.31241836 534.06024278c0 15.9533833-11.20460362 23.51275839-26.06972432 23.51275839L727.57439053 557.57300117c-14.87591455 0-26.94483105-7.55667685-26.94483105-23.51275839 0-15.95158506 12.06891739-23.50466367 26.94483105-23.50466367l149.53081816-1e-8C891.97302852 510.5555791 902.31241836 518.10865859 902.31241836 534.06024278z" p-id="6568" fill="#1afa29"></path><path d="M765.86952675 777.7689084c0 34.96649239-28.39644756 56.35938867-63.30447948 56.35938867L472.33284453 834.12829707l-74.08996699 1e-8-216.15944415 0c-34.90263633 0-63.30268037-21.39019717-63.30268037-56.35938868l0-15.19429834c0-32.03987695 23.58920654-60.44172011 53.70079044-71.24879355l128.88621474-57.44944951c0 0 34.93591347-10.73871914 44.50002891-21.45585323 6.36318545-7.13845987 8.32655479-30.67550244 0.26082334-46.12612676-8.06393232-15.44882607-73.36955566-100.45019443-73.36955566-171.74665547 0-114.98074277 75.57845801-208.19264502 168.80385058-208.19264501 93.22899082 0 168.80115323 93.21190224 168.80115322 208.19264501 0 74.43982969-73.28321367 156.38776875-79.30732939 176.55299737-6.02861221 20.16522773-6.51518261 35.94952617 0.29320137 42.64728486 10.59121934 10.40954238 37.84813857 20.99536523 37.84813857 20.99536524l142.97246455 55.71542461c30.113383 10.81156992 53.70169043 40.07952598 53.70169043 72.11940292L765.86952675 777.7689084 765.86952675 777.7689084z" p-id="6569" fill="#1afa29"></path><path d="M876.67440049 659.04040654L777.30077568 659.04040654c-14.87231631 0-26.94123369-7.55397862-26.94123369-23.51275839 0-15.94978594 12.06891739-23.50466367 26.94123369-23.50466367l100.2388377 0c14.87231631 0 26.0571331 7.55397862 26.0571331 23.50466367C903.59584825 651.48372969 891.54491856 659.04040654 876.67440049 659.04040654z" p-id="6570" fill="#1afa29"></path></svg>