<?xml version="1.0" standalone="no"?><!DOCTYPE svg PUBLIC "-//W3C//DTD SVG 1.1//EN" "http://www.w3.org/Graphics/SVG/1.1/DTD/svg11.dtd"><svg t="1533515932156" class="icon" style="" viewBox="0 0 1024 1024" version="1.1" xmlns="http://www.w3.org/2000/svg" p-id="1788" xmlns:xlink="http://www.w3.org/1999/xlink" width="35" height="35"><defs><style type="text/css"></style></defs><path d="M954.5216 325.05344c-24.192-57.19552-58.81856-108.55424-102.92224-152.6528-44.09856-44.09856-95.4624-78.72512-152.6528-102.91712C639.7184 44.43136 576.82432 31.72864 512 31.72864s-127.72352 12.6976-186.94656 37.75488c-57.1904 24.192-108.55424 58.81856-152.6528 102.91712-44.10368 44.09856-78.72512 95.4624-102.92224 152.6528C44.43136 384.27648 31.72864 447.17568 31.72864 512s12.6976 127.7184 37.74976 186.95168c24.192 57.1904 58.81856 108.54912 102.92224 152.64768 44.09856 44.09856 95.4624 78.73024 152.6528 102.92224 59.22304 25.05216 122.12224 37.74976 186.94656 37.74976s127.7184-12.6976 186.94656-37.74976c57.19552-24.192 108.55424-58.81856 152.6528-102.92224s78.72512-95.4624 102.92224-152.64768c25.05216-59.22304 37.74976-122.12224 37.74976-186.95168 0-64.82432-12.70272-127.7184-37.74976-186.94656z m-182.31296-58.1632l-197.0176 305.0496a10.93632 10.93632 0 0 1-3.2512 3.2512l-305.05984 196.99712a10.92608 10.92608 0 0 1-13.63968-1.44896 10.91584 10.91584 0 0 1-1.44896-13.63968l197.00736-305.0496c0.83968-1.30048 1.9456-2.4064 3.24608-3.2512l305.0752-196.99712a10.91072 10.91072 0 0 1 15.08864 15.08864z" p-id="1789" fill="#1afa29"></path><path d="M512 466.29376c-25.20576 0-45.71136 20.5056-45.71136 45.70624s20.5056 45.71136 45.71136 45.71136c25.20064 0 45.71136-20.51072 45.71136-45.71136 0-25.20064-20.51072-45.70624-45.71136-45.70624z" p-id="1790" fill="#1afa29"></path></svg>