<?xml version="1.0" standalone="no"?><!DOCTYPE svg PUBLIC "-//W3C//DTD SVG 1.1//EN" "http://www.w3.org/Graphics/SVG/1.1/DTD/svg11.dtd"><svg t="1533465429529" class="icon" style="" viewBox="0 0 1024 1024" version="1.1" xmlns="http://www.w3.org/2000/svg" p-id="25930" xmlns:xlink="http://www.w3.org/1999/xlink" width="30" height="30"><defs><style type="text/css"></style></defs><path d="M512.4 23.9c271.2 0 491.1 219.9 491.1 491.1s-219.9 491-491.1 491c-271.2 0-491.1-219.9-491.1-491.1s219.9-491 491.1-491zM355.2 474.2v55.3h124.7v46.6H355.2v55.3h124.7v83.5h57.3v-83.5h124.7v-55.3H537.2v-46.6h124.7v-55.3h-68.3l69.3-141.5H595l-67.4 141.5h-38l-67.4-141.5h-67.9l69.3 141.5h-68.4z m157.2-364.9c-224 0-405.7 181.7-405.7 405.7s181.7 405.7 405.7 405.7S918.1 739 918.1 515 736.4 109.3 512.4 109.3z" p-id="25931" fill="#e6e6e6"></path></svg>