<?xml version="1.0" standalone="no"?><!DOCTYPE svg PUBLIC "-//W3C//DTD SVG 1.1//EN" "http://www.w3.org/Graphics/SVG/1.1/DTD/svg11.dtd"><svg t="1533516526638" class="icon" style="" viewBox="0 0 1024 1024" version="1.1" xmlns="http://www.w3.org/2000/svg" p-id="11400" xmlns:xlink="http://www.w3.org/1999/xlink" width="30" height="30"><defs><style type="text/css"></style></defs><path d="M646.039867 457.512163l28.110258 55.594531 22.842537-52.322875-27.543328-54.448861z" fill="#FF0000" p-id="11401"></path><path d="M526.488594 671.598942l0.047244 44.964601-365.953037 0.354331s-1.452757-45.318932 42.484284-45.318932h323.421509z" fill="#FF0000" p-id="11402"></path><path d="M760.358852 315.602605v-0.023622l-3.153545-1.263781c1.015749 0.472441 2.078742 0.90945 3.153545 1.299214zM677.421781 134.72845c-19.145684 0-37.476407 3.54331-54.401617 9.956701 1.700789 2.787404 15.803162 25.346476 28.677188 28.464588a119.17332 119.17332 0 0 1 25.724429-2.834647c65.633909 0 118.818989 53.574844 118.818989 119.657572 0 8.267723-0.826772 16.334658-2.409451 24.141751 2.125986 4.015751 8.657487 15.177177 19.133873 22.665372 2.74016 1.94882 5.740162 3.66142 9.000007 4.913389l0.755906 0.295276 0.401575-1.122048c5.49213-15.944894 8.46851-33.059081 8.468511-50.881929 0-85.748097-69.011864-155.256025-154.16941-155.256025z" fill="#FF0000" p-id="11403"></path><path d="M677.421781 202.641888c-9.814968 0-19.251983 1.665356-28.051203 4.700791 3.212601 5.645674 15.590563 25.712618 31.299237 30.850418l0.023622 0.094488a51.566969 51.566969 0 0 1 48.070903 48.425234h0.070866s10.854339 19.523637 28.370101 27.602383l3.153545 1.263781a87.708729 87.708729 0 0 0 3.803153-25.606319c0-48.236258-38.834676-87.330776-86.740224-87.330776z" fill="#FF0000" p-id="11404"></path><path d="M721.051736 405.732595l-41.62208-21.188992-112.441031 245.799401c-3.366144 7.145675-19.653558 38.870109-44.173262 41.137827l-14.63387 0.011811a17.834659 17.834659 0 0 1-15.874028-9.61418L330.41364 350.244364l-41.704757 20.976394 156.047365 300.378184s15.118122 30.897662 34.77168 39.519715c16.063004 7.051187 19.700803 5.787406 48.011848 5.527563 0 0 62.173276 1.629923 80.75203-52.61815l112.75993-258.307286z" fill="#FF0000" p-id="11405"></path><path d="M188.456838 512.067323C84.378018 512.067323 0 596.516207 0 700.665893c0 104.173308 84.378018 188.59857 188.456838 188.59857 104.102442 0 188.468649-84.425262 188.468649-188.59857 0-104.149686-84.366207-188.59857-188.468649-188.59857z m0.011811 339.472702c-83.267781 0-150.767832-67.559107-150.767833-150.874132 0-83.326836 67.488241-150.885943 150.767833-150.885943 83.267781 0 150.779644 67.559107 150.779643 150.885943 0 83.326836-67.511863 150.874132-150.779643 150.874132z" fill="#FF0000" p-id="11406"></path><path d="M320.374262 697.500536a126.767814 126.767814 0 0 0-2.881892-25.901594h-51.307126a117.165444 117.165444 0 0 0-2.787404 25.901594c0 6.755911 0.531496 13.228357 1.511813 19.287417l54.637837-0.059055c0.649607-5.976383 0.944883-12.437017 0.826772-19.228362zM365.657761 417.886148l-26.846477-51.685079a123.578835 123.578835 0 0 0-6.283469-0.153543c-9.755913 0-18.98033 1.110237-27.129942 3.09449l-13.996074 7.051187 23.456711 45.189011c5.586618 0.826772 11.515757 1.26378 17.669305 1.26378 12.248041 0 23.645687-1.748033 33.129946-4.759846z" fill="#FF0000" p-id="11407"></path><path d="M227.787577 328.760095h130.866242c44.71657 0 42.566962 51.755945 42.566962 51.755946H267.082883c-42.54334 0-39.295306-51.755945-39.295306-51.755946zM845.433721 654.957197c-42.472474-87.685107-151.937125-303.555352-151.937125-303.555352s-25.665374-72.50793-68.775643-74.267774v-0.11811l-92.031567 0.070866s-1.440946 51.815 39.047274 51.732323l52.72445-0.059055v0.141733s9.507881 2.952758 27.283486 41.905544l1.086615 0.035433-0.79134 0.377953 170.433202 343.464831s42.31893-19.724425 22.960648-59.728392z" fill="#FF0000" p-id="11408"></path><path d="M786.969109 536.894114l-41.881922 21.826788 26.929155 54.271695 41.988221-21.897654c-8.551188-17.220486-17.716549-35.574831-27.047265-54.200829z" fill="#FF0000" p-id="11409"></path><path d="M835.536076 512.067323c-104.090631 0-188.456838 84.448884-188.456838 188.59857 0 104.173308 84.366207 188.59857 188.456838 188.59857 104.090631 0 188.468649-84.425262 188.468648-188.59857 0-104.149686-84.378018-188.59857-188.468648-188.59857z m0 339.472702c-83.267781 0-150.767832-67.559107-150.767833-150.874132 0-83.326836 67.500052-150.885943 150.779644-150.885943 83.267781 0 150.767832 67.559107 150.767832 150.885943 0 83.326836-67.488241 150.874132-150.767832 150.874132z" fill="#FF0000" p-id="11410"></path></svg>