<?xml version="1.0" standalone="no"?><!DOCTYPE svg PUBLIC "-//W3C//DTD SVG 1.1//EN" "http://www.w3.org/Graphics/SVG/1.1/DTD/svg11.dtd"><svg t="1533516543179" class="icon" style="" viewBox="0 0 1024 1024" version="1.1" xmlns="http://www.w3.org/2000/svg" p-id="11598" xmlns:xlink="http://www.w3.org/1999/xlink" width="30" height="30"><defs><style type="text/css"></style></defs><path d="M336.578999 134.196954h374.811312v114.354418H336.578999zM342.933335 358.653819h374.811311v114.354419H342.933335z" fill="#DA251D" p-id="11599"></path><path d="M462.000355 396.271958V21.437024h114.389852v374.834934zM196.074954 26.374036l82.866205-4.263783S288.425419 263.834849 27.992148 348.614441l-19.641748-76.771712s123.425292-76.311082 177.815097-180.082816c11.161426-21.27167 9.921267-42.189009 9.921268-65.385877zM189.720618 346.122313l82.866206-4.251971s9.484259 241.724595-250.949012 326.504188L2.007876 591.614628s123.425292-76.322893 177.826908-180.082815c11.149615-21.27167 9.897645-42.189009 9.897645-65.397689z" fill="#DA251D" p-id="11600"></path><path d="M141.756015 993.933835V489.921637h92.149677v504.012198zM336.578999 633.945369h374.811312v114.354419H336.578999z" fill="#DA251D" p-id="11601"></path><path d="M456.22476 895.465255V520.642133h114.378041v374.823122z" fill="#DA251D" p-id="11602"></path><path d="M334.464824 919.819605c-4.240161 69.885881-10.594496 67.759895-10.594496 67.759895 74.822892 0 160.948943 29.704747 224.468676 0l163.051307-76.228406v-93.177237c-69.779581 18.992141-143.267827 58.228391-211.322997 67.878005-53.433112 7.559061-112.228433-4.370082-165.60249-9.011818v42.779561zM772.465161 328.866395c254.622243-6.992131 249.531688-6.992131 249.531688-6.992132v112.039456H771.88642l0.590552-105.047324zM788.894307 94.429206l-4.251971 106.086696 207.945041-8.492132V90.177235l-203.69307 4.251971zM753.850973 899.681794l1.098426 102.862284c32.527584 0 95.72842-5.078744 121.948913-24.36616l88.110304-64.807137V433.913719h-108.212682V850.748686l-24.980334 24.956712-77.952816 23.964585z" fill="#DA251D" p-id="11603"></path></svg>