<?xml version="1.0" standalone="no"?><!DOCTYPE svg PUBLIC "-//W3C//DTD SVG 1.1//EN" "http://www.w3.org/Graphics/SVG/1.1/DTD/svg11.dtd"><svg t="1533280825606" class="icon" style="" viewBox="0 0 1024 1024" version="1.1" xmlns="http://www.w3.org/2000/svg" p-id="35889" xmlns:xlink="http://www.w3.org/1999/xlink" width="40" height="40"><defs><style type="text/css"></style></defs><path d="M859.160886 295.227636l-159.722588-135.361785-45.105246 52.071907 159.6704 135.361785L859.160886 295.227636zM369.721183 215.392437l-45.153341-52.071907-159.722588 131.906084 45.156411 52.071907L369.721183 215.392437zM529.341441 375.06386l-52.070884 0 0 208.285582 163.18136 100.68402 27.763293-41.697639-138.874792-83.292948L529.340418 375.06386zM512.000512 236.241256c-173.551535 0-312.425303 138.822603-312.425303 312.42735s138.873769 312.428373 312.425303 312.428373c173.556651 0 312.425303-138.82465 312.425303-312.428373S685.557163 236.241256 512.000512 236.241256M512.000512 791.631954c-135.365879 0-243.012467-107.598493-243.012467-242.964371 0-135.414997 107.646588-242.965394 243.012467-242.965394 135.365879 0 243.017583 107.550397 243.017583 242.965394C755.018095 684.032438 647.36639 791.631954 512.000512 791.631954" p-id="35890" fill="#dbdbdb"></path></svg>