<?xml version="1.0" standalone="no"?><!DOCTYPE svg PUBLIC "-//W3C//DTD SVG 1.1//EN" "http://www.w3.org/Graphics/SVG/1.1/DTD/svg11.dtd"><svg t="1533462176678" class="icon" style="" viewBox="0 0 1024 1024" version="1.1" xmlns="http://www.w3.org/2000/svg" p-id="23775" xmlns:xlink="http://www.w3.org/1999/xlink" width="30" height="30"><defs><style type="text/css"></style></defs><path d="M769.43 850.277c-10.206 0-18.465 8.258-18.465 18.465v120.924c0 10.205 8.259 18.465 18.465 18.465 10.207 0 18.465-8.26 18.465-18.465V868.742c0-10.207-8.258-18.465-18.465-18.465zM880.219 850.277c-10.207 0-18.465 8.258-18.465 18.465v120.924c0 10.205 8.258 18.465 18.465 18.465 10.206 0 18.465-8.26 18.465-18.465V868.742c0-10.207-8.259-18.465-18.465-18.465zM991.007 850.277c-10.206 0-18.465 8.258-18.465 18.465v120.924c0 10.205 8.259 18.465 18.465 18.465 10.207 0 18.465-8.26 18.465-18.465V868.742c0-10.207-8.258-18.465-18.465-18.465z" p-id="23776" fill="#dbdbdb"></path><path d="M755.075 791.565a18.492 18.492 0 0 0 13.057 5.411h0.019l221.145-0.145c10.188 0 18.446-8.277 18.446-18.465v-182.52c0-10.207-8.259-18.465-18.465-18.465-10.207 0-18.465 8.258-18.465 18.465v164.071l-184.215 0.108V585.677c0-10.188-8.259-18.465-18.446-18.465l-182.989-0.145h-0.019c-10.188 0-18.446 8.259-18.465 18.448l-0.36 406.225c0 10.205 8.259 18.465 18.446 18.481h0.019c10.188 0 18.446-8.258 18.465-18.448l0.343-387.76 146.077 0.109v174.389a18.44 18.44 0 0 0 5.407 13.054zM197.022 197.772h73.859v73.859h-73.859z" p-id="23777" fill="#dbdbdb"></path><path d="M437.064 13.125H30.84c-10.207 0-18.465 8.268-18.465 18.465v406.225c0 10.198 8.258 18.465 18.465 18.465h406.225c10.207 0 18.465-8.267 18.465-18.465V31.59c-0.001-10.197-8.259-18.465-18.466-18.465zM418.6 419.35H49.305V50.055H418.6V419.35zM197.022 751.715h73.859v73.859h-73.859z" p-id="23778" fill="#dbdbdb"></path><path d="M437.064 567.067H30.84c-10.207 0-18.465 8.259-18.465 18.465v406.225c0 10.207 8.258 18.465 18.465 18.465h406.225c10.207 0 18.465-8.258 18.465-18.465V585.532c-0.001-10.206-8.259-18.465-18.466-18.465zM418.6 973.292H49.305V603.997H418.6v369.295zM750.965 197.772h73.859v73.859h-73.859z" p-id="23779" fill="#dbdbdb"></path><path d="M991.007 13.125H584.782c-10.206 0-18.465 8.268-18.465 18.465v406.225c0 10.198 8.259 18.465 18.465 18.465h406.225c10.207 0 18.465-8.267 18.465-18.465V31.59c0-10.197-8.258-18.465-18.465-18.465zM972.542 419.35H603.247V50.055h369.295V419.35z" p-id="23780" fill="#dbdbdb"></path></svg>