<?xml version="1.0" standalone="no"?><!DOCTYPE svg PUBLIC "-//W3C//DTD SVG 1.1//EN" "http://www.w3.org/Graphics/SVG/1.1/DTD/svg11.dtd"><svg t="1533447443458" class="icon" style="" viewBox="0 0 1024 1024" version="1.1" xmlns="http://www.w3.org/2000/svg" p-id="4945" xmlns:xlink="http://www.w3.org/1999/xlink" width="50" height="50"><defs><style type="text/css"></style></defs><path d="M0 0h1024v1024H0V0z" fill="#51C042" p-id="4946"></path><path d="M371.390171 517.778286c26.945829 42.788571-17.788343 62.171429-36.483657 72.952685C254.551771 636.445257 219.428571 653.575314 219.428571 675.825371v30.383543c0 9.771886 7.314286 18.241829 18.241829 18.241829h395.088457c10.942171 0 18.241829-8.455314 18.241829-18.241829V675.84c0-22.250057-35.1232-39.394743-115.5072-85.0944-18.666057-10.766629-63.400229-30.164114-36.4544-72.952686 23.917714-35.5328 42.5984-50.000457 42.554514-109.421714 0.043886-56.378514-41.6768-115.477943-103.336229-115.477943-67.744914 0-109.4656 59.099429-109.421714 115.477943-0.043886 59.421257 18.6368 73.888914 42.554514 109.421714z" fill="#FFFFFF" p-id="4947"></path><path d="M561.386057 578.998857c7.416686-4.213029 15.623314-8.821029 24.707657-13.999543 12.829257-7.387429 43.534629-20.6848 25.029486-50.0736-16.427886-24.400457-29.242514-34.333257-29.213257-75.117714-0.029257-38.751086 28.598857-79.316114 75.117714-79.316114 42.364343 0 70.992457 40.565029 70.9632 79.316114 0.029257 40.784457-12.770743 50.717257-29.213257 75.117714-18.505143 29.3888 12.214857 42.7008 25.044114 50.0736 55.178971 31.407543 79.301486 43.183543 79.301486 58.441143v20.874972a12.258743 12.258743 0 0 1-12.507429 12.507428H669.696a49.269029 49.269029 0 0 0-9.669486-13.560686c-1.565257-8.543086 1.1264-7.504457-98.640457-64.263314z" fill="#FFFFFF" p-id="4948"></path></svg>