<?xml version="1.0" standalone="no"?><!DOCTYPE svg PUBLIC "-//W3C//DTD SVG 1.1//EN" "http://www.w3.org/Graphics/SVG/1.1/DTD/svg11.dtd"><svg t="1533465207698" class="icon" style="" viewBox="0 0 1024 1024" version="1.1" xmlns="http://www.w3.org/2000/svg" p-id="24742" xmlns:xlink="http://www.w3.org/1999/xlink" width="30" height="30"><defs><style type="text/css"></style></defs><path d="M59.1 124.1h220v76H134.8c-20.4 0-37.1 16.7-37.1 37.1v164.7H14.5V168.7c0-24.5 20.1-44.6 44.6-44.6zM347 487l-30.4 54.7L444.4 704l288.9-335.6-29.4-32.4-254.5 236.2L347 487z m390.3-362.9h220c24.5 0 44.6 20.1 44.6 44.6v233.2h-83.1V237.2c0-20.4-16.7-37.1-37.1-37.1H737.3v-76z m264.6 486.6v233.2c0 24.5-20.1 44.6-44.6 44.6h-220v-76h144.4c20.4 0 37.1-16.7 37.1-37.1V610.7h83.1zM279.1 888.5h-220c-24.5 0-44.6-20.1-44.6-44.6V610.7h83.1v164.7c0 20.4 16.7 37.1 37.1 37.1h144.4v76z" p-id="24743" fill="#e6e6e6"></path></svg>