<?xml version="1.0" standalone="no"?><!DOCTYPE svg PUBLIC "-//W3C//DTD SVG 1.1//EN" "http://www.w3.org/Graphics/SVG/1.1/DTD/svg11.dtd"><svg t="1533516258847" class="icon" style="" viewBox="0 0 1024 1024" version="1.1" xmlns="http://www.w3.org/2000/svg" p-id="4688" xmlns:xlink="http://www.w3.org/1999/xlink" width="30" height="30"><defs><style type="text/css"></style></defs><path d="M809.909073 324.083512c-33.767024 8.391805-54.346927 25.974634-64.936585 50.550634 89.512585 87.914146 120.482341 222.183024 83.018927 324.682927-46.854244 122.680195-170.633366 248.057756-339.168781 245.36039C324.782829 906.414829 202.901854 825.194146 167.736195 656.059317c-29.970732-179.924293 102.79961-356.052293 310.296976-530.382049C506.005854 75.426341 490.72078 37.063805 459.950829 2.997073 227.477854 231.773659 57.044293 458.35239 88.413659 677.638244c28.771902 211.193756 169.834146 316.091317 389.619512 346.361756 326.481171-8.59161 418.491317-198.406244 450.959609-346.361756 25.275317-140.662634-24.775805-263.742439-119.083707-353.554732z" p-id="4689" fill="#1afa29"></path><path d="M470.840195 345.762341l-93.80839 248.956879h144.259122L452.757854 764.253659l187.61678-223.681561H488.822634l93.80839-194.809757z" p-id="4690" fill="#1afa29"></path></svg>