<?xml version="1.0" standalone="no"?><!DOCTYPE svg PUBLIC "-//W3C//DTD SVG 1.1//EN" "http://www.w3.org/Graphics/SVG/1.1/DTD/svg11.dtd"><svg t="1533516195707" class="icon" style="" viewBox="0 0 1024 1024" version="1.1" xmlns="http://www.w3.org/2000/svg" p-id="3324" xmlns:xlink="http://www.w3.org/1999/xlink" width="30" height="30"><defs><style type="text/css"></style></defs><path d="M836.386 867.357c0 17.657-3.531 34.071-10.591 49.256-7.06 15.181-16.77 28.601-29.132 40.248-12.356 11.653-26.834 20.833-43.424 27.541-16.595 6.706-34.426 10.062-53.489 10.062H323.732c-19.064 0-36.896-3.357-53.49-10.062-16.591-6.708-31.067-15.887-43.429-27.541-12.355-11.647-22.063-25.066-29.126-40.248-7.06-15.186-10.59-31.598-10.59-49.256V157.698c0-17.653 3.53-34.246 10.59-49.781 7.063-15.538 16.771-29.13 29.126-40.78 12.362-11.654 26.839-20.833 43.429-27.538 16.595-6.71 34.428-10.065 53.49-10.065H699.75c19.064 0 36.894 3.355 53.489 10.065 16.59 6.706 31.068 15.883 43.424 27.538 12.362 11.65 22.073 25.243 29.132 40.78 7.06 15.534 10.591 32.128 10.591 49.781v709.659m-85.792-658.815H271.833v606.916h478.761V208.542M511.211 845.117c-14.83 0-27.717 5.297-38.662 15.887s-16.415 23.657-16.415 39.19c0 14.83 5.47 27.714 16.415 38.661 10.946 10.947 23.833 16.419 38.662 16.419 15.538 0 28.597-5.472 39.193-16.419 10.591-10.947 15.89-23.831 15.89-38.661 0-15.532-5.299-28.599-15.89-39.19-10.596-10.591-23.655-15.887-39.193-15.887m84.733-726.607c0-5.65-1.764-10.063-5.293-13.24-3.53-3.182-7.418-4.767-11.648-4.767H444.482c-3.531 0-7.237 1.586-11.121 4.767-3.885 3.176-5.824 7.59-5.824 13.24s1.765 10.062 5.294 13.238c3.531 3.177 7.417 4.767 11.65 4.767h134.521c4.231 0 8.118-1.59 11.648-4.767 3.529-3.175 5.293-7.588 5.293-13.238m0.001 0z" p-id="3325" fill="#1296db"></path><path d="M681.375 350.003h-60.234l-67.724 91.155c-18.061 24.704-29.108 41.124-33.141 49.261h-1.153c-11.915-19.788-45.536-66.592-100.868-140.415h-63.691L473.011 498.63H375.89v32.84h113.836v45.262H375.889v33.262h113.836v65.892h56.484v-65.892h109.802v-33.262H546.21V531.47h109.802v-32.84h-94.239l119.602-148.627z" p-id="3326" fill="#1296db"></path></svg>