<?xml version="1.0" standalone="no"?><!DOCTYPE svg PUBLIC "-//W3C//DTD SVG 1.1//EN" "http://www.w3.org/Graphics/SVG/1.1/DTD/svg11.dtd"><svg t="1533376418385" class="icon" style="" viewBox="0 0 1112 1024" version="1.1" xmlns="http://www.w3.org/2000/svg" p-id="8912" xmlns:xlink="http://www.w3.org/1999/xlink" width="32.578125" height="30"><defs><style type="text/css"></style></defs><path d="M932.384971 499.582938c0-18.500168-1.379674-36.663257-3.903849-54.46575l78.954956-104.580825c-18.939155-54.857703-47.316532-105.309857-83.329148-149.318308l-130.434026 12.236764c-30.705576-25.633708-65.4953-46.516949-103.216829-61.669841L639.408151 21.173286c-29.984383-5.769544-60.917292-8.897327-92.579233-8.897327-26.699819 0-52.858744 2.234131-78.398383 6.365312l-54.559819 118.926295c-38.207551 14.039746-73.514652 34.021496-104.9571 58.722357L178.926417 180.219861c-37.345255 42.989374-67.290443 92.540037-87.844444 146.747099l75.866369 106.909024c-3.676517 21.361423-5.691154 43.295098-5.691154 65.706954 0 18.500168 1.379674 36.663257 3.903849 54.46575L86.206081 658.629513c18.939155 54.857703 47.316532 105.309857 83.329148 149.318308l130.434026-12.236764c30.705576 25.633708 65.4953 46.516949 103.216829 61.669841l51.055761 120.611691c29.984383 5.769544 60.917292 8.897327 92.579233 8.897327 26.699819 0 52.858744-2.234131 78.398383-6.365312l54.559819-118.926295c38.207551-14.039746 73.514652-34.021496 104.9571-58.722357l129.979361 16.08574c37.345255-42.989374 67.290443-92.540037 87.844444-146.747099l-75.866369-106.909024C930.362495 543.928469 932.384971 522.002633 932.384971 499.582938zM786.594237 499.582938c0 132.417307-107.35585 239.773157-239.773157 239.773157-132.417307 0-239.773157-107.348011-239.773157-239.773157s107.348011-239.773157 239.773157-239.773157C679.238387 259.80978 786.594237 367.165631 786.594237 499.582938z" p-id="8913" fill="#1296db"></path></svg>