<?xml version="1.0" standalone="no"?><!DOCTYPE svg PUBLIC "-//W3C//DTD SVG 1.1//EN" "http://www.w3.org/Graphics/SVG/1.1/DTD/svg11.dtd"><svg t="1533293790767" class="icon" style="" viewBox="0 0 1024 1024" version="1.1" xmlns="http://www.w3.org/2000/svg" p-id="52688" xmlns:xlink="http://www.w3.org/1999/xlink" width="32" height="32"><defs><style type="text/css"></style></defs><path d="M729.6 864H160c-57.6 0-96-38.4-96-96v-19.2c0-44.8 32-89.6 76.8-102.4l140.8-64c19.2 0 32-6.4 38.4-12.8 0 0 0-12.8-6.4-19.2 0 0-6.4-6.4-6.4-12.8-25.6-32-76.8-108.8-76.8-185.6 0-140.8 96-256 211.2-256 115.2 0 211.2 115.2 211.2 256 0 70.4-44.8 134.4-70.4 179.2-6.4 6.4-12.8 19.2-12.8 25.6-6.4 12.8-6.4 19.2-6.4 19.2s19.2 6.4 25.6 12.8l153.6 64c44.8 19.2 76.8 57.6 76.8 102.4v12.8c6.4 57.6-32 96-89.6 96zM441.6 153.6c-89.6 0-160 89.6-160 198.4 0 57.6 44.8 128 64 160 6.4 6.4 12.8 12.8 12.8 19.2 12.8 25.6 12.8 64-6.4 83.2-6.4 12.8-38.4 25.6-51.2 25.6l-140.8 64c-25.6 6.4-44.8 32-44.8 51.2v19.2c0 25.6 19.2 32 38.4 32h576c19.2 0 38.4-6.4 38.4-32v-19.2c0-19.2-19.2-44.8-38.4-51.2L576 640c-6.4 0-38.4-12.8-51.2-32-19.2-6.4-19.2-32-6.4-70.4 0-12.8 12.8-19.2 25.6-38.4 25.6-38.4 64-96 64-147.2-6.4-108.8-76.8-198.4-166.4-198.4z m268.8 262.4c-19.2 0-32-6.4-32-25.6 0-19.2 12.8-25.6 32-25.6h217.6c19.2 0 25.6 6.4 25.6 25.6 0 19.2-12.8 25.6-32 25.6h-211.2z m44.8 115.2c-19.2 0-32-6.4-32-25.6 0-19.2 12.8-25.6 32-25.6h172.8c19.2 0 25.6 6.4 25.6 25.6 0 19.2-12.8 25.6-25.6 25.6h-172.8z m57.6 108.8c-19.2 0-32-6.4-32-25.6 0-19.2 12.8-25.6 32-25.6h121.6c19.2 0 25.6 6.4 25.6 25.6 0 19.2-12.8 25.6-32 25.6h-115.2z" p-id="52689" fill="#8a8a8a"></path></svg>