<?xml version="1.0" standalone="no"?><!DOCTYPE svg PUBLIC "-//W3C//DTD SVG 1.1//EN" "http://www.w3.org/Graphics/SVG/1.1/DTD/svg11.dtd"><svg t="1533372916089" class="icon" style="" viewBox="0 0 1024 1024" version="1.1" xmlns="http://www.w3.org/2000/svg" p-id="1921" xmlns:xlink="http://www.w3.org/1999/xlink" width="70" height="70"><defs><style type="text/css"></style></defs><path d="M870.3 710.2c36.7-60.4 57.7-131 57.7-206.3C928 280 742.2 98.5 513 98.5c-175.2 0-325 106.1-385.9 256h60c12.1 0 21.8 9.6 21.8 21.3 0 11.8-9.8 21.3-21.8 21.3h-74.5C103.1 431.3 98 467 98 503.9c0 223.9 185.8 405.4 415 405.4 77.5 0 150.1-20.8 212.1-56.9h-132c-12.1 0-21.8-9.6-21.8-21.3s9.8-21.3 21.8-21.3h188.4c1.2 0 2.4 0.1 3.6 0.3 20.3-17.3 38.9-36.4 55.5-57.2h-131c-12.1 0-21.8-9.6-21.8-21.3s9.8-21.3 21.8-21.3h160.7z" fill="#FFCB00" p-id="1922"></path><path d="M513.8 652.9c-9.6 0-18.1-2.4-24.9-7.3-7.8-5.5-17.2-16.9-17.2-39.5 0-11.9 5.5-23.5 15.2-31.8 3-2.6 6.3-4.8 9.8-6.6-7.4-7-12.6-15.1-15.1-23.6-3.9-13.6-0.1-26.2 10.4-34.6 14-11.2 37.9-12.3 55.5-2.5 6.5 3.6 8.8 11.7 5.2 18.2-3.6 6.5-11.7 8.8-18.2 5.2-8.7-4.9-20.8-4-25.8 0-1.4 1.1-2.5 2.4-1.4 6.3 2.9 10.2 15.9 20.3 33.1 25.9 6.6 2.1 10.5 9 8.9 15.8s-8.2 11.2-14.9 10.2c-12.8-1.8-23.4 0.4-30.1 6.1-3.7 3.2-5.9 7.6-5.9 11.6 0 6.2 1 14.3 5.8 17.6 5.1 3.6 15.4 3.1 27.5-1.3 6.9-2.5 14.6 1.1 17.1 8.1 2.5 7-1.1 14.6-8.1 17.1-9.7 3.4-18.7 5.1-26.9 5.1z" fill="#6D3D2D" p-id="1923"></path><path d="M747.3 473.4m-120.5 0a120.5 120.5 0 1 0 241 0 120.5 120.5 0 1 0-241 0Z" fill="#28D4FF" p-id="1924"></path><path d="M747.3 603.9c-72 0-130.5-58.6-130.5-130.5s58.6-130.5 130.5-130.5 130.5 58.6 130.5 130.5-58.6 130.5-130.5 130.5z m0-240.9c-60.9 0-110.4 49.5-110.4 110.4s49.5 110.4 110.4 110.4 110.4-49.5 110.4-110.4S808.2 363 747.3 363z" fill="#6D3D2D" p-id="1925"></path><path d="M278.7 473.4m-120.5 0a120.5 120.5 0 1 0 241 0 120.5 120.5 0 1 0-241 0Z" fill="#28D4FF" p-id="1926"></path><path d="M278.7 603.9c-72 0-130.5-58.6-130.5-130.5s58.6-130.5 130.5-130.5 130.5 58.6 130.5 130.5-58.5 130.5-130.5 130.5z m0-240.9c-60.9 0-110.4 49.5-110.4 110.4s49.5 110.4 110.4 110.4 110.4-49.5 110.4-110.4S339.6 363 278.7 363z" fill="#6D3D2D" p-id="1927"></path><path d="M627.2 466.2c-33.5-23.8-73-36.3-114.2-36.3-37.5 0-73.9 10.5-105.4 30.4l-10.7-17c34.7-21.9 74.9-33.5 116.1-33.5 45.4 0 88.9 13.8 125.8 40.1l-11.6 16.3zM246.3 466.2c-4.4 0-8.7-2.2-11.3-6.2l-21.1-33c-4-6.2-2.2-14.5 4.1-18.5 6.2-4 14.5-2.1 18.5 4.1l21.1 33c4 6.2 2.2 14.5-4.1 18.5-2.3 1.4-4.8 2.1-7.2 2.1z" fill="#6D3D2D" p-id="1928"></path><path d="M225.1 482.1a63.8 62.3 0 1 0 127.6 0 63.8 62.3 0 1 0-127.6 0Z" fill="#6D3D2D" p-id="1929"></path><path d="M340.2 445.4c-10.1-13.4-25.4-22.5-43.1-24.8-16.8 3.5-29.5 18-29.5 35.5 0 20.1 16.7 36.3 37.2 36.3 20.5 0 37.2-16.3 37.2-36.3 0.1-3.7-0.7-7.2-1.8-10.7zM257.1 492.5c-11.7 0-21.3 9.3-21.3 20.8 0 1.3 0.2 2.6 0.4 3.8 4.5 6.5 10.3 12.1 16.9 16.5 1.3 0.2 2.6 0.4 3.9 0.4 11.7 0 21.3-9.3 21.3-20.8 0-11.4-9.5-20.7-21.2-20.7z" fill="#FFFFFF" p-id="1930"></path><path d="M793.1 466.2c4.4 0 8.7-2.2 11.3-6.2l21.1-33c4-6.2 2.2-14.5-4.1-18.5-6.2-4-14.5-2.1-18.5 4.1l-21.1 33c-4 6.2-2.2 14.5 4.1 18.5 2.2 1.4 4.7 2.1 7.2 2.1z" fill="#6D3D2D" p-id="1931"></path><path d="M686.6 482.1a63.8 62.3 0 1 0 127.6 0 63.8 62.3 0 1 0-127.6 0Z" fill="#6D3D2D" p-id="1932"></path><path d="M699.1 445.4c10.1-13.4 25.4-22.5 43.1-24.8 16.8 3.5 29.5 18 29.5 35.5 0 20.1-16.7 36.3-37.2 36.3-20.5 0-37.2-16.3-37.2-36.3 0-3.7 0.8-7.2 1.8-10.7zM782.3 492.5c11.7 0 21.3 9.3 21.3 20.8 0 1.3-0.2 2.6-0.4 3.8-4.5 6.5-10.3 12.1-16.9 16.5-1.3 0.2-2.6 0.4-3.9 0.4-11.7 0-21.3-9.3-21.3-20.8 0-11.4 9.5-20.7 21.2-20.7z" fill="#FFFFFF" p-id="1933"></path><path d="M260.5 637m-10.1 0a10.1 10.1 0 1 0 20.2 0 10.1 10.1 0 1 0-20.2 0Z" fill="#6D3D2D" p-id="1934"></path><path d="M316.8 637m-10.1 0a10.1 10.1 0 1 0 20.2 0 10.1 10.1 0 1 0-20.2 0Z" fill="#6D3D2D" p-id="1935"></path><path d="M288.7 676.3m-10.1 0a10.1 10.1 0 1 0 20.2 0 10.1 10.1 0 1 0-20.2 0Z" fill="#6D3D2D" p-id="1936"></path><path d="M237.7 676.3m-10.1 0a10.1 10.1 0 1 0 20.2 0 10.1 10.1 0 1 0-20.2 0Z" fill="#6D3D2D" p-id="1937"></path><path d="M339.6 676.3m-10.1 0a10.1 10.1 0 1 0 20.2 0 10.1 10.1 0 1 0-20.2 0Z" fill="#6D3D2D" p-id="1938"></path><path d="M709.2 637m-10.1 0a10.1 10.1 0 1 0 20.2 0 10.1 10.1 0 1 0-20.2 0Z" fill="#6D3D2D" p-id="1939"></path><path d="M765.5 637m-10.1 0a10.1 10.1 0 1 0 20.2 0 10.1 10.1 0 1 0-20.2 0Z" fill="#6D3D2D" p-id="1940"></path><path d="M737.3 676.3m-10.1 0a10.1 10.1 0 1 0 20.2 0 10.1 10.1 0 1 0-20.2 0Z" fill="#6D3D2D" p-id="1941"></path><path d="M686.4 676.3m-10.1 0a10.1 10.1 0 1 0 20.2 0 10.1 10.1 0 1 0-20.2 0Z" fill="#6D3D2D" p-id="1942"></path><path d="M788.3 676.3m-10.1 0a10.1 10.1 0 1 0 20.2 0 10.1 10.1 0 1 0-20.2 0Z" fill="#6D3D2D" p-id="1943"></path></svg>