<?xml version="1.0" standalone="no"?><!DOCTYPE svg PUBLIC "-//W3C//DTD SVG 1.1//EN" "http://www.w3.org/Graphics/SVG/1.1/DTD/svg11.dtd"><svg t="1533516605706" class="icon" style="" viewBox="0 0 1024 1024" version="1.1" xmlns="http://www.w3.org/2000/svg" p-id="13802" xmlns:xlink="http://www.w3.org/1999/xlink" width="30" height="30"><defs><style type="text/css"></style></defs><path d="M977.062166 326.098453h-176.569091L574.605607 100.210985a69.790155 69.790155 0 1 0-125.622278 0L223.095861 326.098453H46.52677a46.52677 46.52677 0 0 0-46.52677 46.52677v604.848007a46.52677 46.52677 0 0 0 46.52677 46.52677h930.535396a46.52677 46.52677 0 0 0 46.52677-46.52677V372.625223a46.52677 46.52677 0 0 0-46.52677-46.52677zM481.784701 133.012358a67.69645 67.69645 0 0 0 59.7869 0l193.086094 193.086095H288.698607zM345.461266 744.839381l-142.139282 12.09696-2.093705-21.634948 130.042322-11.399058-10.468523-46.52677-100.730457 11.631692-12.09696-11.166424 3.256874-77.467072 11.864326-10.468523 122.598039 11.399058-1.861071 21.867582-111.19898-10.701157-2.326338 52.807884 97.706216-10.933791 11.864327 8.374818 15.586467 69.790155z m167.729005-2.558972l-60.950068-127.48335-36.290881 79.560777 51.412081-8.840086 3.954775 21.867581-66.533281 11.166425-20.006511 43.967798-20.006511-8.840087L442.004313 584.787293h20.006511l69.790155 148.653029z m148.885664 13.958031l-109.33791-3.02424-10.468523-12.329594 16.051736-150.048833 21.867582 2.558972-15.121201 139.58031 97.473583 3.02424z m23.263384 0L672.311824 744.839381l11.166425-143.535085 11.166424-10.235889 116.316925 3.722141v21.867582l-106.546303-3.256874-3.489508 46.52677 100.730457-1.628437v22.100216l-103.754697 0.465268-3.954775 52.807883L814.218472 723.902335l1.861071 21.867581z" p-id="13803" fill="#d81e06"></path></svg>