<?xml version="1.0" standalone="no"?><!DOCTYPE svg PUBLIC "-//W3C//DTD SVG 1.1//EN" "http://www.w3.org/Graphics/SVG/1.1/DTD/svg11.dtd"><svg t="1533301012153" class="icon" style="" viewBox="0 0 1024 1024" version="1.1" xmlns="http://www.w3.org/2000/svg" p-id="79731" xmlns:xlink="http://www.w3.org/1999/xlink" width="40" height="40"><defs><style type="text/css"></style></defs><path d="M595.2 128C448 204.8 454.4 364.8 480 518.4c32 179.2 6.4 275.2-83.2 320-89.6 44.8-204.8 6.4-249.6-83.2-44.8-89.6-6.4-204.8 83.2-249.6 19.2-12.8 25.6-32 19.2-44.8-12.8-19.2-32-25.6-44.8-19.2-121.6 64-172.8 211.2-115.2 339.2 64 121.6 211.2 172.8 339.2 115.2 147.2-70.4 140.8-236.8 115.2-384-32-185.6-6.4-281.6 83.2-326.4 89.6-44.8 204.8-6.4 249.6 83.2 44.8 89.6 6.4 204.8-83.2 249.6-12.8 6.4-19.2 25.6-12.8 44.8 6.4 12.8 25.6 19.2 44.8 12.8 121.6-64 172.8-211.2 115.2-339.2-70.4-115.2-217.6-166.4-345.6-108.8z" p-id="79732" fill="#707070"></path></svg>