<?xml version="1.0" standalone="no"?><!DOCTYPE svg PUBLIC "-//W3C//DTD SVG 1.1//EN" "http://www.w3.org/Graphics/SVG/1.1/DTD/svg11.dtd"><svg t="1533458872340" class="icon" style="" viewBox="0 0 1024 1024" version="1.1" xmlns="http://www.w3.org/2000/svg" p-id="13667" xmlns:xlink="http://www.w3.org/1999/xlink" width="50" height="50"><defs><style type="text/css"></style></defs><path d="M118.933 213.12s-56-2.133-56.533-19.2c0 0-9.92 44.587 44.587 58.027 0 0-43.413 61.973-60.8 69.76-17.387 7.787-29.973 72.427 51.733 58.347 0 0 34.987 36.16 37.12 117.653 0 0 18.88-45.227 18.24-111.36 0 0 17.387-40.96 43.733-18.24 0 0 87.68 87.36 100.907 131.947 0 0 9.387 40 13.44 56.533 8.107 32.64 76.053 87.04 95.787 91.307 0 0 9.387 154.773 2.24 175.467 0 0-13.547 28.693-26.347 30.293 0 0-20.8 35.947 8 35.947 0 0 29.547 3.947 49.493-26.347l31.893-3.2s18.347-3.947 23.147-52.693l-9.6-13.547v-161.92s15.253-15.467 51.84 11.947c35.093 26.347 173.973 29.547 250.56-36.693 0 0 16-11.2 19.947 19.2 0 0 7.147 39.147 46.293 66.987 0 0 8.747 70.187-8 101.333 0 0-35.947 30.293-12.8 49.493 0 0 16 14.4 37.547-5.547 0 0 22.293-18.347 22.293-119.68 0 0 16.747-30.293 31.147 41.493S936 845.014 912 867.414c0 0-14.4 24.747 17.6 37.547 0 0 36.693 5.547 44.693-13.547 0 0 8-22.293-3.947-31.893 0 0 19.2-41.493 8-59.84l-9.6-19.947s14.4-99.733-30.293-127.68c0 0-6.4-39.147 14.4-49.493 0 0 8.747-162.773 4.8-183.573 0 0 6.4-49.493 27.947-56.64 0 0 23.147-66.24-33.493-74.24 0 0-49.493-5.547-55.893 28.693 0 0 55.893 20.8 32.747 35.093 0 0-35.093 11.947-59.84-22.293 0 0-43.093-44.693-134.08-10.347s-174.827 19.947-200.32 6.4c-25.493-13.547-58.24-49.493-108.587-24.747 0 0-47.04 23.147-123.733-46.293l-75.84-56.64 8.747-9.6s110.187-7.147 121.28-74.987c0 0-102.933 55.04-131.733 53.44h-17.6s-14.4-19.2-18.347-42.347c0 0-13.547 16-17.6 43.093l-52.373 45.547z" fill="" p-id="13668"></path></svg>