<?xml version="1.0" standalone="no"?><!DOCTYPE svg PUBLIC "-//W3C//DTD SVG 1.1//EN" "http://www.w3.org/Graphics/SVG/1.1/DTD/svg11.dtd"><svg t="1533458889241" class="icon" style="" viewBox="0 0 1024 1024" version="1.1" xmlns="http://www.w3.org/2000/svg" p-id="13840" xmlns:xlink="http://www.w3.org/1999/xlink" width="50" height="50"><defs><style type="text/css"></style></defs><path d="M435.2 404.48m-18.773333 0a18.773333 18.773333 0 1 0 37.546666 0 18.773333 18.773333 0 1 0-37.546666 0Z" p-id="13841"></path><path d="M581.973333 334.506667s1.706667-1.706667 3.413334-5.12c3.413333-3.413333 8.533333-5.12 13.653333-6.826667 3.413333 0 6.826667-1.706667 8.533333 0 3.413333 0 5.12 3.413333 6.826667 5.12 3.413333 3.413333 1.706667 8.533333 1.706667 8.533333l-1.706667 1.706667-6.826667 3.413333h-5.12c-1.706667 0-3.413333-1.706667-5.12-3.413333-5.12-3.413333-15.36-1.706667-15.36-3.413333zM433.493333 339.626667s-10.24-3.413333-15.36 0c-1.706667 0-3.413333 1.706667-5.12 3.413333h-5.12c-3.413333 0-6.826667-3.413333-6.826666-3.413333l-1.706667-1.706667s0-5.12 1.706667-8.533333c1.706667-1.706667 3.413333-3.413333 6.826666-5.12h8.533334c5.12 1.706667 10.24 3.413333 13.653333 6.826666 3.413333 5.12 5.12 6.826667 3.413333 8.533334z" p-id="13842"></path><path d="M512 633.173333c-3.413333 0-8.533333-1.706667-11.946667-3.413333-3.413333-3.413333-39.253333-27.306667-39.253333-61.44v-1.706667c-25.6-20.48-49.493333-44.373333-68.266667-69.973333-20.48-27.306667-42.666667-68.266667-42.666666-110.933333 0-10.24 0-20.48 1.706666-30.72-13.653333 3.413333-25.6 5.12-39.253333 5.12-20.48 0-40.96-5.12-58.026667-17.066667-5.12-5.12-8.533333-11.946667-6.826666-18.773333 0-5.12 1.706667-10.24 5.12-13.653334 22.186667-20.48 44.373333-39.253333 68.266666-58.026666 20.48-17.066667 47.786667-25.6 73.386667-25.6 6.826667 0 13.653333 0 18.773333 1.706666v-1.706666c-3.413333-10.24-8.533333-20.48-15.36-30.72-6.826667-10.24-17.066667-18.773333-29.013333-25.6-5.12-3.413333-11.946667-5.12-18.773333-5.12-3.413333 0-5.12 0-8.533334 1.706666-5.12 1.706667-8.533333 3.413333-11.946666 6.826667-5.12 3.413333-8.533333 8.533333-11.946667 11.946667-3.413333 3.413333-5.12 8.533333-8.533333 13.653333-1.706667 1.706667-1.706667 3.413333-1.706667 3.413333-1.706667 1.706667-1.706667 3.413333-3.413333 5.12l-6.826667 13.653334c-3.413333 8.533333-11.946667 13.653333-20.48 13.653333-3.413333 0-6.826667 0-10.24-1.706667-10.24-5.12-15.36-17.066667-11.946667-27.306666l3.413334-11.946667c0-1.706667 1.706667-5.12 1.706666-6.826667l1.706667-5.12c0-1.706667 1.706667-3.413333 1.706667-3.413333 3.413333-6.826667 5.12-13.653333 10.24-20.48 5.12-8.533333 10.24-15.36 17.066666-22.186667 8.533333-8.533333 17.066667-15.36 27.306667-22.186666 11.946667-6.826667 27.306667-10.24 40.96-10.24 11.946667 0 25.6 1.706667 35.84 6.826666 20.48 8.533333 40.96 22.186667 56.32 37.546667 13.653333 13.653333 25.6 30.72 34.133333 47.786667 1.706667 3.413333 3.413333 6.826667 3.413334 10.24 6.826667 0 15.36-1.706667 22.186666-1.706667 8.533333 0 15.36 0 22.186667 1.706667l5.12-10.24c8.533333-18.773333 20.48-34.133333 34.133333-47.786667 15.36-17.066667 35.84-29.013333 56.32-39.253333 11.946667-5.12 23.893333-6.826667 35.84-6.826667h1.706667c13.653333 0 27.306667 3.413333 39.253333 10.24 11.946667 6.826667 22.186667 13.653333 29.013334 22.186667 6.826667 6.826667 11.946667 15.36 17.066666 22.186666 3.413333 5.12 5.12 11.946667 8.533334 17.066667l1.706666 5.12v3.413333c1.706667 3.413333 3.413333 6.826667 3.413334 10.24l3.413333 11.946667c3.413333 11.946667-3.413333 23.893333-15.36 29.013333-1.706667 0-5.12 1.706667-6.826667 1.706667-8.533333 0-17.066667-5.12-20.48-13.653333l-5.12-11.946667c-1.706667-1.706667-1.706667-3.413333-3.413333-6.826667 0 0 0-1.706667-1.706667-1.706666 0-1.706667-1.706667-1.706667-1.706666-3.413334-1.706667-3.413333-5.12-8.533333-8.533334-11.946666-3.413333-5.12-6.826667-8.533333-11.946666-11.946667-3.413333-3.413333-8.533333-6.826667-11.946667-6.826667-3.413333-1.706667-5.12-1.706667-8.533333-1.706666-6.826667 0-11.946667 1.706667-17.066667 5.12-10.24 6.826667-20.48 15.36-29.013333 25.6-6.826667 10.24-11.946667 20.48-15.36 30.72v1.706666c6.826667-1.706667 11.946667-1.706667 18.773333-1.706666 27.306667 0 52.906667 8.533333 73.386667 25.6 23.893333 17.066667 46.08 37.546667 66.56 56.32 5.12 3.413333 6.826667 10.24 6.826666 17.066666s-3.413333 11.946667-8.533333 15.36c-17.066667 11.946667-37.546667 18.773333-58.026667 17.066667-13.653333 0-27.306667-1.706667-39.253333-5.12 1.706667 10.24 1.706667 20.48 1.706667 30.72 0 42.666667-23.893333 83.626667-44.373334 110.933333-18.773333 27.306667-42.666667 49.493333-68.266666 69.973334v1.706666c0 34.133333-34.133333 59.733333-39.253334 61.44 0 3.413333-5.12 5.12-8.533333 5.12z m-141.653333-303.786666l-1.706667 13.653333c-1.706667 13.653333-1.706667 27.306667-1.706667 40.96 0 37.546667 22.186667 75.093333 40.96 100.693333 18.773333 27.306667 42.666667 49.493333 68.266667 68.266667l3.413333 3.413333v10.24c0 27.306667 29.013333 46.08 30.72 47.786667 1.706667 1.706667 3.413333 0 5.12 0 1.706667 0 30.72-20.48 30.72-47.786667v-10.24l3.413334-1.706666c25.6-18.773333 49.493333-42.666667 68.266666-68.266667s40.96-63.146667 40.96-100.693333c0-13.653333 0-27.306667-1.706666-40.96l-1.706667-13.653334 13.653333 5.12c15.36 5.12 30.72 8.533333 47.786667 8.533334 17.066667 0 34.133333-5.12 47.786667-15.36 0 0 1.706667-1.706667 1.706666-3.413334s0-1.706667-1.706666-3.413333c-20.48-20.48-42.666667-39.253333-66.56-56.32-18.773333-13.653333-40.96-22.186667-63.146667-22.186667-6.826667 0-15.36 0-22.186667 1.706667h-3.413333l-3.413333-1.706667c-1.706667-1.706667-3.413333-1.706667-3.413334-3.413333l-5.12-3.413333 1.706667-6.826667c0-3.413333 1.706667-8.533333 3.413333-11.946667 5.12-11.946667 10.24-23.893333 18.773334-35.84 8.533333-11.946667 20.48-22.186667 34.133333-30.72 8.533333-5.12 17.066667-6.826667 25.6-6.826666 5.12 0 10.24 1.706667 15.36 3.413333 6.826667 1.706667 11.946667 5.12 17.066667 10.24 5.12 5.12 10.24 10.24 13.653333 15.36 3.413333 3.413333 6.826667 8.533333 10.24 13.653333 0 1.706667 1.706667 1.706667 1.706667 1.706667 0 1.706667 1.706667 1.706667 1.706666 3.413333 1.706667 1.706667 1.706667 3.413333 3.413334 6.826667l5.12 11.946667c1.706667 1.706667 3.413333 3.413333 5.12 3.413333h1.706666c3.413333-1.706667 5.12-5.12 3.413334-6.826667l-8.533334-10.24c-1.706667-3.413333-1.706667-5.12-3.413333-8.533333 0 0 0-1.706667-1.706667-3.413333v-1.706667l-1.706666-3.413333c-1.706667-5.12-5.12-10.24-6.826667-15.36-3.413333-6.826667-8.533333-13.653333-13.653333-18.773334-6.826667-6.826667-13.653333-13.653333-22.186667-17.066666-10.24-5.12-20.48-8.533333-32.426667-8.533334-10.24 0-20.48 1.706667-30.72 5.12-18.773333 8.533333-35.84 18.773333-51.2 34.133334-11.946667 13.653333-22.186667 27.306667-30.72 44.373333-1.706667 5.12-3.413333 10.24-5.12 13.653333l-5.12 6.826667h-6.826666c-10.24-1.706667-18.773333-1.706667-29.013334-1.706667-8.533333 0-17.066667 0-25.6 1.706667H477.866667l-1.706667-6.826667-5.12-15.36c-8.533333-15.36-18.773333-30.72-30.72-44.373333-13.653333-15.36-30.72-27.306667-51.2-34.133333-10.24-3.413333-20.48-5.12-30.72-5.12-11.946667 0-22.186667 1.706667-32.426667 8.533333-8.533333 5.12-15.36 10.24-22.186666 17.066667-5.12 6.826667-10.24 11.946667-13.653334 18.773333-3.413333 5.12-5.12 10.24-8.533333 15.36v1.706667l-1.706667 1.706666c0 1.706667-1.706667 3.413333-1.706666 3.413334v1.706666c0 1.706667-1.706667 3.413333-1.706667 5.12l-3.413333 11.946667c-1.706667 3.413333 0 5.12 3.413333 6.826667h1.706667c1.706667 0 3.413333-1.706667 5.12-3.413334l6.826666-13.653333c0-1.706667 1.706667-3.413333 1.706667-5.12 1.706667-1.706667 1.706667-5.12 3.413333-6.826667 3.413333-5.12 5.12-8.533333 8.533334-13.653333 3.413333-5.12 8.533333-10.24 13.653333-15.36 5.12-5.12 11.946667-8.533333 18.773333-10.24 5.12-1.706667 10.24-1.706667 13.653334-3.413333 10.24 0 18.773333 3.413333 27.306666 6.826666 13.653333 8.533333 25.6 18.773333 34.133334 30.72 8.533333 10.24 13.653333 22.186667 18.773333 35.84 1.706667 3.413333 1.706667 5.12 1.706667 6.826667l3.413333 10.24-13.653333 8.533333h-3.413334c-6.826667-1.706667-15.36-1.706667-22.186666-1.706666-22.186667 0-46.08 6.826667-63.146667 22.186666-22.186667 17.066667-44.373333 35.84-64.853333 56.32 0 0-1.706667 1.706667-1.706667 3.413334v3.413333c13.653333 10.24 30.72 15.36 47.786667 15.36 17.066667 0 32.426667-3.413333 47.786666-8.533333h8.533334z" p-id="13843"></path><path d="M566.613333 291.84c-3.413333 0-8.533333 0-11.946666-1.706667-10.24-3.413333-17.066667-13.653333-18.773334-23.893333v-3.413333-8.533334c0-3.413333 0-6.826667 1.706667-8.533333 0-3.413333 0-5.12 1.706667-8.533333 0-3.413333 1.706667-6.826667 3.413333-10.24 1.706667-6.826667 5.12-13.653333 8.533333-20.48 8.533333-17.066667 18.773333-30.72 30.72-44.373334 13.653333-15.36 32.426667-27.306667 52.906667-35.84 22.186667-8.533333 47.786667-8.533333 66.56 1.706667 8.533333 5.12 17.066667 10.24 23.893333 18.773333l15.36 20.48c3.413333 5.12 6.826667 11.946667 8.533334 18.773334l1.706666 6.826666c1.706667 3.413333 1.706667 5.12 3.413334 8.533334l5.12 15.36-3.413334 6.826666-6.826666 3.413334-6.826667-5.12c-3.413333-1.706667-5.12-3.413333-5.12-6.826667v-1.706667c-1.706667-1.706667-1.706667-5.12-3.413333-8.533333s-3.413333-5.12-3.413334-8.533333l-1.706666-3.413334c-3.413333-5.12-6.826667-8.533333-10.24-13.653333-3.413333-5.12-8.533333-10.24-13.653334-13.653333-5.12-5.12-10.24-6.826667-17.066666-10.24-11.946667-3.413333-25.6-1.706667-35.84 5.12-13.653333 6.826667-23.893333 17.066667-32.426667 29.013333-8.533333 10.24-13.653333 22.186667-18.773333 34.133333-1.706667 5.12-3.413333 10.24-3.413334 13.653334v20.48c1.706667 10.24-3.413333 20.48-11.946666 27.306666-6.826667 5.12-11.946667 6.826667-18.773334 6.826667z m-13.653333-27.306667c1.706667 5.12 3.413333 8.533333 8.533333 10.24 5.12 1.706667 10.24 1.706667 13.653334-1.706666 3.413333-3.413333 5.12-6.826667 5.12-11.946667V256v-6.826667-5.12c0-1.706667 0-5.12 1.706666-6.826666 0-5.12 1.706667-10.24 3.413334-15.36 5.12-13.653333 11.946667-27.306667 20.48-39.253334 10.24-13.653333 22.186667-25.6 37.546666-34.133333 15.36-8.533333 32.426667-10.24 49.493334-6.826667-15.36-6.826667-34.133333-6.826667-51.2 0s-34.133333 17.066667-46.08 30.72c-11.946667 11.946667-20.48 25.6-29.013334 40.96-3.413333 6.826667-5.12 11.946667-6.826666 18.773334-1.706667 3.413333-1.706667 5.12-1.706667 8.533333 0 1.706667 0 5.12-1.706667 8.533333v13.653334c-3.413333-1.706667-3.413333 0-3.413333 1.706666zM455.68 290.133333c-5.12 0-10.24-1.706667-15.36-3.413333-10.24-5.12-15.36-15.36-15.36-25.6v-13.653333l1.706667 1.706666v-3.413333-5.12c0-5.12-1.706667-10.24-3.413334-13.653333-3.413333-11.946667-10.24-23.893333-18.773333-34.133334-8.533333-11.946667-20.48-22.186667-32.426667-29.013333-11.946667-6.826667-25.6-8.533333-37.546666-3.413333-5.12 1.706667-11.946667 5.12-15.36 10.24-5.12 3.413333-10.24 8.533333-13.653334 13.653333-3.413333 5.12-6.826667 8.533333-10.24 13.653333-1.706667 1.706667-1.706667 3.413333-3.413333 6.826667 0-3.413333-1.706667-1.706667-1.706667 0-3.413333 6.826667-5.12 11.946667-5.12 11.946667-3.413333 5.12-8.533333 6.826667-13.653333 5.12l-3.413333-1.706667-1.706667-5.12c-1.706667-3.413333 0-5.12 0-8.533333 0-1.706667 1.706667-5.12 3.413333-10.24 0-1.706667 1.706667-5.12 3.413334-8.533334l1.706666-6.826666c3.413333-6.826667 5.12-11.946667 8.533334-18.773334 3.413333-6.826667 8.533333-13.653333 15.36-20.48 6.826667-8.533333 15.36-13.653333 23.893333-18.773333 18.773333-10.24 44.373333-10.24 66.56-1.706667 18.773333 8.533333 37.546667 20.48 51.2 35.84 11.946667 13.653333 23.893333 29.013333 30.72 44.373334 3.413333 6.826667 6.826667 13.653333 8.533333 22.186666 1.706667 3.413333 1.706667 6.826667 1.706667 8.533334 1.706667 3.413333 1.706667 6.826667 1.706667 10.24v15.36c0 10.24-5.12 20.48-15.36 27.306666-1.706667 3.413333-6.826667 5.12-11.946667 5.12z m-13.653333-29.013333c0 3.413333 3.413333 6.826667 6.826666 8.533333 3.413333 1.706667 8.533333 1.706667 13.653334 0 3.413333-1.706667 6.826667-6.826667 6.826666-11.946666v-6.826667-3.413333-3.413334c0-3.413333 0-5.12-1.706666-6.826666-1.706667-3.413333-1.706667-6.826667-3.413334-10.24-1.706667-6.826667-3.413333-11.946667-6.826666-18.773334-6.826667-15.36-17.066667-29.013333-29.013334-40.96-13.653333-13.653333-29.013333-23.893333-46.08-30.72-17.066667-6.826667-37.546667-6.826667-52.906666 1.706667 17.066667-5.12 35.84-3.413333 51.2 5.12 15.36 8.533333 27.306667 20.48 37.546666 34.133333 8.533333 11.946667 15.36 25.6 20.48 39.253334 1.706667 5.12 3.413333 10.24 3.413334 17.066666 0 1.706667 0 3.413333 1.706666 6.826667V256c0 3.413333-1.706667 5.12-1.706666 5.12zM512 535.893333h-8.533333l-1.706667-8.533333v-25.6l18.773333-1.706667v35.84z" p-id="13844"></path><path d="M546.133333 501.76h-68.266666l-15.36-17.066667c-5.12-5.12-5.12-11.946667 0-17.066666 1.706667-3.413333 5.12-3.413333 8.533333-3.413334s6.826667 1.706667 8.533333 3.413334l8.533334 8.533333h47.786666l8.533334-8.533333c1.706667-3.413333 5.12-3.413333 8.533333-3.413334s6.826667 1.706667 8.533333 3.413334c5.12 5.12 5.12 11.946667 0 17.066666l-15.36 17.066667z" p-id="13845"></path><path d="M556.373333 512h-90.453333l46.08-29.013333z" p-id="13846"></path><path d="M424.96 438.613333c-22.186667 0-39.253333-17.066667-39.253333-39.253333s17.066667-39.253333 39.253333-39.253333c22.186667 0 39.253333 17.066667 39.253333 39.253333s-17.066667 39.253333-39.253333 39.253333z m0-61.44c-11.946667 0-22.186667 10.24-22.186667 22.186667s10.24 22.186667 22.186667 22.186667c11.946667 0 22.186667-10.24 22.186667-22.186667s-10.24-22.186667-22.186667-22.186667z" p-id="13847"></path><path d="M573.44 411.306667m-18.773333 0a18.773333 18.773333 0 1 0 37.546666 0 18.773333 18.773333 0 1 0-37.546666 0Z" p-id="13848"></path><path d="M583.68 445.44c-22.186667 0-39.253333-17.066667-39.253333-39.253333s17.066667-39.253333 39.253333-39.253334 39.253333 17.066667 39.253333 39.253334-17.066667 39.253333-39.253333 39.253333z m0-63.146667c-11.946667 0-22.186667 10.24-22.186667 22.186667s10.24 22.186667 22.186667 22.186667 22.186667-10.24 22.186667-22.186667-8.533333-22.186667-22.186667-22.186667z" p-id="13849"></path><path d="M447.146667 909.653333h59.733333V887.466667H460.8v-10.24h46.08v-20.48h-54.613333v-10.24h37.546666c-5.12-5.12-10.24-11.946667-15.36-18.773334l6.826667-6.826666 17.066667 17.066666-8.533334 6.826667h32.426667c5.12-6.826667 11.946667-15.36 18.773333-25.6l10.24 6.826667c-5.12 6.826667-10.24 11.946667-17.066666 18.773333h35.84v10.24h-54.613334v20.48H563.2v10.24h-46.08v22.186667h59.733333v10.24h-59.733333v34.133333h-10.24v-34.133333h-59.733333v-8.533334z" p-id="13850"></path></svg>