<?xml version="1.0" standalone="no"?><!DOCTYPE svg PUBLIC "-//W3C//DTD SVG 1.1//EN" "http://www.w3.org/Graphics/SVG/1.1/DTD/svg11.dtd"><svg t="1533458899761" class="icon" style="" viewBox="0 0 1024 1024" version="1.1" xmlns="http://www.w3.org/2000/svg" p-id="14027" xmlns:xlink="http://www.w3.org/1999/xlink" width="50" height="50"><defs><style type="text/css"></style></defs><path d="M848.2 504.2c24.7 16.6 41.2 46.8 41.3 81.6 0.1 45.6-29.4 106.2-67.8 124.1-6.8 3.2-28.4-7.9-28.4 1.1 0.1 53.7-39 98.1-87.2 99.1-14.7 0.3-28.5-3.5-40.7-10.3-8.7 47-58.5 83.9-118.8 85.3-53.6 1.1-99-26.2-114.7-65-15.3 15.1-35.2 24.5-57 25-40.8 0.9-75.1-29.7-84.6-71.6-5.8 1.4-11.7 2.3-17.8 2.4-48.2 1-87.4-41.6-87.4-95.4-0.1-13.3 2.3-25.9 6.6-37.5-36.8-10.7-64-47.6-64-92.3-0.1-42 23.8-78.2 57.3-92.5-13.2-16.8-21.4-38.8-21.4-63.1-0.1-53.7 39-98.1 87.2-99.2 6.4-0.1 12.7 0.5 18.7 1.9 5.1-48.3 41.8-86.6 86.6-87.5 24.5-0.5 46.6 10.3 62.5 28 9.8-44.2 50.8-78.1 100-79.2 52-1.1 94.8 34.8 101.5 82.3 15.4-15.8 35.8-25.6 58.2-26.2 48.2-1 87.4 41.7 87.4 95.4 0 11-1.7 21.6-4.7 31.4 9-3.7 18.7-6 28.8-6.1 48.2-1.1 87.4 41.6 87.5 95.4 0 28.7-11.2 54.7-29.1 72.9z" fill="#FFC831" p-id="14028"></path><path d="M543.5 895.3c-49.7 0-93.8-23-114.9-58.9-15.8 11.8-34.4 18.5-53.5 18.8-41.7 0.7-78.6-27.5-92.2-70.1-3.4 0.5-6.9 0.7-10.3 0.8-24.1 0.5-47.7-8.9-65.8-26.6-20.4-20-32.1-48.8-32.1-79-0.1-10.6 1.3-21.1 4.1-31.2-36.6-15.5-61.4-54.5-61.5-98.6-0.1-40.2 20.6-77.4 52.4-96.3-10.7-17.4-16.5-38.1-16.5-59.3-0.1-59.2 43.5-108.3 97.2-109.4 3.4 0 6.9 0.1 10.4 0.4 9.7-48.8 48.9-85.1 94.9-86 21.2-0.3 41.1 6.4 57.8 19.6 16.5-40.9 58-69.8 104.7-70.7 50.5-1.1 93.5 29.7 107.9 73.7 15.4-11 33.3-17.2 51.8-17.7 24.2-0.3 47.8 8.9 65.8 26.6 20.4 20 32.1 48.8 32.2 79.1 0 5.6-0.4 11.1-1.2 16.6 4.9-0.9 9.9-1.5 14.9-1.6 23.8-0.8 47.6 8.9 65.7 26.5 20.4 20 32.2 48.8 32.2 79.1 0 26.2-8.7 51.7-24.4 71.5 23.1 19.8 36.6 50 36.6 83 0.1 46.8-30.2 113.1-73.7 133.4-6 2.8-13.2 1.2-20.1-0.2-0.7-0.2-1.6-0.3-2.6-0.5-3.4 55.8-45.6 100.9-97 102-11.6 0.3-23.2-1.8-34.1-6.1-15.4 46.3-65.9 79.6-125.4 81-1.1 0.1-2.2 0.1-3.3 0.1z m-111.6-85.5c0.7 0 1.4 0.1 2.1 0.2 3.4 0.7 6.2 3 7.4 6.2 14.6 36 55.9 59.4 105 58.5 54.2-1.2 101.1-34.2 109-76.9 0.6-3.3 2.7-6 5.8-7.4 3-1.4 6.5-1.2 9.4 0.4 11 6.3 22.9 9.4 35.4 9 42.6-0.9 77.2-40.8 77.2-88.9 0-4.3 1.7-8.1 4.9-10.6 6.1-5 14.3-3.2 22.3-1.5 2.6 0.6 6.9 1.5 8.3 1.3 34.3-16.1 60.8-73.8 60.7-114.4-0.1-30.3-13.8-57.6-36.8-73.1-2.5-1.7-4.2-4.4-4.5-7.5-0.3-3 0.7-6.1 2.9-8.2 16.6-16.9 26.1-40.9 26.1-65.8s-9.5-48.4-26-64.5c-14.1-13.7-31.4-21.1-51-20.7-8.4 0.1-16.8 2-25.1 5.4-3.6 1.5-7.9 0.8-10.8-1.9-2.9-2.7-4.1-6.8-2.9-10.6 2.8-9.3 4.2-18.8 4.2-28.5 0-24.8-9.5-48.3-26-64.4-14.1-13.8-32.5-21.6-51-20.7-18.8 0.5-36.9 8.7-51.1 23.1-2.7 2.8-6.8 3.8-10.5 2.6-3.7-1.2-6.4-4.4-7-8.3-6-42.9-46.1-75-91.1-73.4-43.4 0.9-81.3 30.8-90.2 71.1-0.8 3.8-3.7 6.7-7.4 7.7-3.8 1-7.7-0.2-10.3-3.1-14.6-16.3-33.7-25.5-54.6-24.6-39 0.8-72 34.5-76.6 78.3-0.3 2.9-1.8 5.5-4.2 7.3-2.4 1.7-5.3 2.4-8.2 1.7-5.4-1.2-10.9-1.8-16.3-1.6-42.6 0.9-77.2 40.8-77.1 88.9 0 20.9 6.8 41.1 19.2 56.7 2 2.5 2.7 5.8 1.9 8.9-0.8 3.1-3 5.7-5.9 6.9-30.6 13.1-51.1 46.5-51.1 83.1 0.1 38.9 23.4 72.8 56.6 82.4 2.7 0.8 5 2.7 6.3 5.2 1.3 2.5 1.4 5.5 0.5 8.2-4 10.8-6 22.2-6 33.9 0 24.9 9.4 48.3 25.9 64.4 14.1 13.8 31.5 21.3 51 20.7 5.2-0.1 10.4-0.8 15.6-2.1 2.7-0.6 5.5-0.2 7.8 1.2 2.4 1.4 4 3.8 4.6 6.5 8.7 38.2 38.5 63.8 74.4 63.7 18.2-0.4 36-8.2 50-22 2-1.8 4.6-2.8 7.2-2.8z m371.7-98.9z" fill="#7F0518" p-id="14029"></path><path d="M248.7 539.8a264.7 219.5 0 1 0 529.4 0 264.7 219.5 0 1 0-529.4 0Z" fill="#FFFFFF" p-id="14030"></path><path d="M513.4 769.5c-151.6 0-275-103.1-275-229.7S361.8 310 513.4 310s274.9 103.1 274.9 229.7S665 769.5 513.4 769.5z m0-439c-140.3 0-254.4 93.8-254.4 209.2S373.1 749 513.4 749s254.4-93.9 254.4-209.2-114.1-209.3-254.4-209.3z" fill="#7F0518" p-id="14031"></path><path d="M755.9 437.5c6.6 20.1 17.4 38.9 31.4 54.8 7 8 14.9 15.3 24.1 20.5 8.1 4.7 17.2 7.7 26.4 9.5 19.6 4 40.3 2.8 58.8-4.6 18.5-7.5 34.6-21.4 43.3-39.4 7.8-16.2 20.3-45.3-1-83.1-14.2-25.1-50.8-32-78.4-23.9-27.6 8.1-50.1 36.7-45.4 65.1 9.4 56.6 78.9 67.6 90 9.9 4.9-25.7-14-41.5-30.4-44-8.7-1.4-18.2 2.7-22.8 10.3-4.6 7.5-3.8 18.1 2.1 24.6 6 6.5 16.8 8.1 24.2 3.2" fill="#FFFFFF" p-id="14032"></path><path d="M860 534.9c-8 0-16.1-0.8-24.3-2.5-11.1-2.3-21-5.9-29.4-10.7-9.1-5.2-17.9-12.6-26.7-22.6-14.8-16.9-26.4-37-33.5-58.4-1.8-5.4 1.1-11.2 6.5-13 5.3-1.8 11.2 1.1 13 6.5 6.2 18.7 16.3 36.5 29.4 51.2 7.3 8.3 14.3 14.3 21.5 18.4 6.5 3.7 14.3 6.5 23.3 8.4 18.3 3.7 37.2 2.3 52.9-4.1 16.8-6.8 30.6-19.3 37.9-34.4 6.1-12.6 18.8-39-0.7-73.5-11.6-20.5-43.6-25.8-66.6-19.1-21.7 6.3-42.2 29.4-38.2 53.6 4.2 25.7 23 39.4 39.3 39.6 15-0.8 26.9-11 30.6-30 1.5-7.9 0.2-14.9-3.9-20.7-4.1-5.9-11.1-10.2-18.1-11.3-4.7-0.7-10.1 1.6-12.5 5.5-2.3 3.7-1.9 9.2 0.9 12.3 2.7 2.9 7.9 3.6 10.9 1.6 4.7-3.2 11.1-1.9 14.2 2.8 3.1 4.7 1.9 11.1-2.8 14.2-11.5 7.6-27.9 5.6-37.4-4.7-9.1-9.8-10.5-25.4-3.4-36.9 6.8-11 20.1-17.1 33.1-15 12.5 2 24.4 9.4 31.7 19.8 7.3 10.4 9.8 22.9 7.2 36.3-5.4 28.4-25.2 46.6-50.3 46.6h-0.7c-24.8-0.3-53.2-19.9-59.3-56.8-5.3-32.2 18.3-66.6 52.7-76.7 30.8-9 72.9-2 90.2 28.7 24.8 43.9 8.4 78 1.3 92.6-9.5 19.6-27.2 35.8-48.7 44.4-12.3 5.3-25.9 7.9-40.1 7.9z" fill="#7F0518" p-id="14033"></path><path d="M270.1 434.3c-6.6 20.1-17.4 38.9-31.4 54.8-7 8-14.9 15.3-24.1 20.5-8.1 4.7-17.2 7.7-26.4 9.5-19.6 4-40.3 2.8-58.8-4.6-18.5-7.5-34.6-21.4-43.3-39.4-7.8-16.2-20.3-45.3 1-83.1 14.2-25.1 50.8-32 78.4-23.9 27.6 8.1 50.1 36.7 45.4 65.1-9.4 56.6-78.9 67.6-90 9.9-4.9-25.7 14-41.5 30.4-44 8.7-1.4 18.2 2.7 22.8 10.3 4.6 7.5 3.8 18.1-2.1 24.6-6 6.5-16.8 8.1-24.2 3.2" fill="#FFFFFF" p-id="14034"></path><path d="M166 531.7c-14.1 0-27.8-2.6-40.4-7.6-21.4-8.6-39.2-24.8-48.7-44.4-7-14.6-23.5-48.7 1.3-92.6 17.4-30.7 59.4-37.7 90.2-28.7 34.4 10 58 44.5 52.7 76.7-6.1 36.8-34.4 56.4-59.3 56.8h-0.7c-25.1 0-44.8-18.2-50.3-46.6-2.6-13.4-0.1-26 7.2-36.3 7.3-10.4 19.2-17.8 31.7-19.8 13.2-2 26.4 4 33.2 15 7.1 11.6 5.7 27.1-3.4 36.9-9.5 10.3-25.9 12.4-37.4 4.7-4.7-3.1-6-9.5-2.8-14.2 3.1-4.7 9.5-6 14.2-2.8 3.1 2 8.3 1.3 10.9-1.6 2.8-3 3.2-8.6 0.9-12.3-2.4-3.9-7.7-6.3-12.5-5.5-5.5 0.9-13.2 4.3-18.1 11.3-4.1 5.8-5.4 12.7-3.8 20.7 3.6 19 15 29.6 30.6 30 16.3-0.2 35-13.9 39.3-39.6 4-24.2-16.5-47.3-38.2-53.6-23-6.7-55-1.3-66.6 19.1-19.5 34.6-6.8 60.9-0.7 73.6 7.3 15.1 21.1 27.6 37.9 34.3 15.8 6.4 34.6 7.8 53 4.1 9-1.8 16.8-4.6 23.3-8.4 7.1-4.1 14.2-10.1 21.5-18.4 13-14.8 23.2-32.5 29.4-51.2 1.8-5.4 7.5-8.3 13-6.5 5.4 1.8 8.3 7.6 6.5 13-7.1 21.3-18.6 41.5-33.5 58.4-8.8 10-17.6 17.4-26.7 22.6-8.4 4.8-18.3 8.4-29.4 10.7-8.2 1.4-16.3 2.2-24.3 2.2z" fill="#7F0518" p-id="14035"></path><path d="M643.1 536m-55 0a55 55 0 1 0 110 0 55 55 0 1 0-110 0Z" fill="#7F0518" p-id="14036"></path><path d="M629.2 524.9m-25.4 0a25.4 25.4 0 1 0 50.8 0 25.4 25.4 0 1 0-50.8 0Z" fill="#FFFFFF" p-id="14037"></path><path d="M661.7 561.8m-11.6 0a11.6 11.6 0 1 0 23.2 0 11.6 11.6 0 1 0-23.2 0Z" fill="#FFFFFF" p-id="14038"></path><path d="M385.2 537.8m-55 0a55 55 0 1 0 110 0 55 55 0 1 0-110 0Z" fill="#7F0518" p-id="14039"></path><path d="M371.3 526.7m-25.4 0a25.4 25.4 0 1 0 50.8 0 25.4 25.4 0 1 0-50.8 0Z" fill="#FFFFFF" p-id="14040"></path><path d="M403.8 563.6m-11.6 0a11.6 11.6 0 1 0 23.2 0 11.6 11.6 0 1 0-23.2 0Z" fill="#FFFFFF" p-id="14041"></path><path d="M677.8 454.8c-2.5 0-5-0.9-6.9-2.7-10.4-9.6-20.8-14.2-30.6-13.5-14.2 0.9-23.9 12.3-24 12.4-3.6 4.4-10.1 5-14.4 1.4-4.4-3.6-5-10-1.5-14.4 0.6-0.7 15.1-18.2 38.2-19.9 16-1.1 31.3 5.2 46.1 18.8 4.2 3.8 4.4 10.3 0.6 14.5-2 2.3-4.8 3.4-7.5 3.4z" fill="#7F0518" p-id="14042"></path><path d="M353.5 456.6c-2.3 0-4.6-0.7-6.5-2.3-4.4-3.6-5-10-1.5-14.4 0.6-0.7 15.1-18.2 38.2-19.9 15.9-1.2 31.3 5.2 46.1 18.8 4.2 3.8 4.4 10.3 0.6 14.5-3.8 4.2-10.3 4.5-14.5 0.6-10.5-9.6-20.9-14.2-30.8-13.5-14.1 1-23.7 12.3-23.7 12.4-2 2.5-5 3.8-7.9 3.8z" fill="#7F0518" p-id="14043"></path><path d="M643 639.5a43.8 28.6 0 1 0 87.6 0 43.8 28.6 0 1 0-87.6 0Z" fill="#FF6A48" p-id="14044"></path><path d="M299.1 639.5a43.8 28.6 0 1 0 87.6 0 43.8 28.6 0 1 0-87.6 0Z" fill="#FF6A48" p-id="14045"></path><path d="M478.4 640.8a40.1 28.1 0 1 0 80.2 0 40.1 28.1 0 1 0-80.2 0Z" fill="#7F0518" p-id="14046"></path><path d="M488.6 714.5c-2.4 0-4.7-0.2-7-0.7-21-3.9-31.5-24.6-31.9-25.5-2.5-5.1-0.5-11.2 4.6-13.8 5.1-2.5 11.2-0.4 13.7 4.6 0.2 0.3 6.6 12.6 17.5 14.5 6.7 1.1 14.3-1.7 22.8-8.5v-21.7c0-5.7 4.6-10.3 10.3-10.3s10.3 4.6 10.3 10.3v26.4c0 2.9-1.2 5.7-3.4 7.6-12.5 11.4-24.9 17.1-36.9 17.1z" fill="#7F0518" p-id="14047"></path><path d="M548.5 714.5c-12 0-24.4-5.7-36.8-17-4.2-3.8-4.5-10.3-0.7-14.5 3.8-4.2 10.3-4.5 14.5-0.7 9.9 8.9 18.7 12.9 26.3 11.4 10.7-2 17.3-14.3 17.3-14.4 2.5-5 8.6-7.1 13.8-4.6 5.1 2.5 7.1 8.7 4.6 13.8-0.4 0.9-10.9 21.5-31.9 25.5-2.4 0.3-4.8 0.5-7.1 0.5z" fill="#7F0518" p-id="14048"></path></svg>