<?xml version="1.0" standalone="no"?><!DOCTYPE svg PUBLIC "-//W3C//DTD SVG 1.1//EN" "http://www.w3.org/Graphics/SVG/1.1/DTD/svg11.dtd"><svg t="1533459221182" class="icon" style="" viewBox="0 0 1439 1024" version="1.1" xmlns="http://www.w3.org/2000/svg" p-id="15225" xmlns:xlink="http://www.w3.org/1999/xlink" width="56.2109375" height="40"><defs><style type="text/css"></style></defs><path d="M531.670528 464.030222a28.46964 28.46964 0 1 0 28.46964-28.46964 28.46964 28.46964 0 0 0-28.46964 28.46964zM840.708471 464.030222a28.46964 28.46964 0 1 0 28.469641-28.46964 28.46964 28.46964 0 0 0-28.469641 28.46964z" p-id="15226"></path><path d="M1422.20087 460.329169c-12.384293-28.46964-37.722273-53.80762-77.010376-77.010376a679.570309 679.570309 0 0 0-125.978158-53.80762 629.60609 629.60609 0 0 0-171.529581-35.017657 74.021064 74.021064 0 0 0 3.274008-120.711274 112.739775 112.739775 0 0 0-110.746899-91.956938 106.476454 106.476454 0 0 0-25.053284 2.846964A170.81784 170.81784 0 0 0 845.690658 43.106594a112.739775 112.739775 0 0 0-165.408608-12.953686 73.878716 73.878716 0 0 0-91.956938 14.23482h-6.120972a112.455078 112.455078 0 0 0-106.334106 75.729242h-5.266884A74.305761 74.305761 0 0 0 398.574961 178.622081a74.021064 74.021064 0 0 0 12.66899 117.294917h-16.797088a609.962039 609.962039 0 0 0-183.202134 36.014094A681.84788 681.84788 0 0 0 85.40892 385.738712c-39.288103 23.345105-64.483735 48.683085-76.868028 77.152725a112.739775 112.739775 0 0 0 3.701053 94.09216 131.245041 131.245041 0 0 0 42.70446 54.234664A99.64374 99.64374 0 0 0 113.87856 629.011787a220.497362 220.497362 0 0 0 91.102849-25.053284 961.562094 961.562094 0 0 0 97.793213-56.227539h1.138786a415.087352 415.087352 0 1 0 825.619562 56.93928 401.137229 401.137229 0 0 0-4.270446-58.789806l2.135223 1.281133a930.95723 930.95723 0 0 0 97.793214 55.658147A219.500925 219.500925 0 0 0 1317.147898 626.734215a100.640178 100.640178 0 0 0 59.216851-17.793525 129.963907 129.963907 0 0 0 42.704461-54.51936 112.882123 112.882123 0 0 0 3.558705-94.376857zM418.361361 194.992124a13.096034 13.096034 0 0 0 4.412794-7.9715 48.683085 48.683085 0 0 1 47.828995-40.996281 45.693772 45.693772 0 0 1 11.530205 1.423482 12.526642 12.526642 0 0 0 9.822026-1.708179 12.953686 12.953686 0 0 0 6.26332-7.971499 86.263009 86.263009 0 0 1 84.554831-67.188351 82.419608 82.419608 0 0 1 10.249071 0 12.811338 12.811338 0 0 0 11.957249-5.124535 48.398388 48.398388 0 0 1 39.003407-19.7864 46.832558 46.832558 0 0 1 30.03547 11.672553 13.238383 13.238383 0 0 0 17.935873-1.423482 85.40892 85.40892 0 0 1 47.117254-28.46964 87.117099 87.117099 0 0 1 88.825277 34.163568 12.811338 12.811338 0 0 0 6.975062 4.839839 142.3482 142.3482 0 0 1 67.330699 40.853933 12.66899 12.66899 0 0 0 13.096034 3.416357 95.657991 95.657991 0 0 1 25.33798-3.701053 86.97475 86.97475 0 0 1 85.40892 75.444546 12.66899 12.66899 0 0 0 5.978625 9.252633 47.828995 47.828995 0 0 1 22.491015 40.853933 48.398388 48.398388 0 0 1-48.25604 48.25604h-4.412794a227.757121 227.757121 0 0 1-26.04972 0 415.799093 415.799093 0 0 0-538.787939 14.23482v-1.138785-4.982187a12.953686 12.953686 0 0 0-7.686803-12.241945 48.398388 48.398388 0 0 1-29.323729-44.412639 48.967781 48.967781 0 0 1 17.651177-37.295228z m-129.252166 330.959565c-67.188351 42.70446-128.11338 77.152725-175.515331 77.152725-32.597738 0-59.216851-16.085347-77.864466-56.93928C-5.266883 455.916375 83.985438 401.539362 219.358577 356.272635a578.076042 578.076042 0 0 1 174.80359-34.732961 153.45136 153.45136 0 0 1 16.512391 0.711741A412.809781 412.809781 0 0 0 310.176729 512.855655l-21.067534 14.23482zM1073.874824 754.847596a384.340141 384.340141 0 0 1-83.416046 123.700586 389.607024 389.607024 0 0 1-123.700586 83.416045 389.607024 389.607024 0 0 1-532.097573-441.279421 26.049721 26.049721 0 0 0 1.138786-3.558705 387.471801 387.471801 0 0 1 94.234508-177.93525l1.992875-2.41992c2.562268-2.704616 5.266883-5.693928 7.971499-8.398544A389.322328 389.322328 0 0 1 1073.874824 754.847596zM1395.012364 543.745215c-18.505266 40.996282-45.12438 56.93928-78.006814 56.93928-47.686647 0-108.184632-34.163568-175.515331-76.583332-7.259758-4.412794-14.23482-9.110285-21.494578-14.23482a413.66387 413.66387 0 0 0-100.924874-189.180758c5.693928 0 11.530204-0.711741 17.935873-0.711741a581.065354 581.065354 0 0 1 173.949501 34.021219c135.657835 45.266728 225.052505 99.64374 185.05266 189.750152z" p-id="15227"></path></svg>