<?xml version="1.0" standalone="no"?><!DOCTYPE svg PUBLIC "-//W3C//DTD SVG 1.1//EN" "http://www.w3.org/Graphics/SVG/1.1/DTD/svg11.dtd"><svg t="1533458919902" class="icon" style="" viewBox="0 0 1024 1024" version="1.1" xmlns="http://www.w3.org/2000/svg" p-id="14410" xmlns:xlink="http://www.w3.org/1999/xlink" width="50" height="50"><defs><style type="text/css"></style></defs><path d="M246.11 548.84a56.23 56.23 0 0 1-30.17-8.56c-17.66-10.92-33-32.63-46.78-66.34-9.83-24-20-43.5-29.84-62.34-13.07-25-25.45-48.74-33.27-77.18C89 326.21 52.17 304.85 56 275c1.17-9.14 6.25-16.38 14.69-20.94 20.59-11.1 58.93-3.12 74 2.31 3.3-5.58 7.9-19.79 10.6-33.24a207 207 0 0 1 7.43-37.58c8.51-28.19 21.58-45.58 38.86-51.68l3.4-1.2 3.37 1.24c6 2.22 20.16 13.38 25.59 68.64h31.16c8.44-8.33 33.06-32.92 43.55-46.08l1.19-1.5 1.65-0.95c5-2.87 13.36-4.76 20.47-0.64s10.59 12.33 10.59 24.55c0 13.66 0 38.62 3.18 45.07 7.76 2.91 19.42 9.7 24.59 12.8h69.17l2.53 6.25a52.51 52.51 0 0 1-1.17 38c-5.87 13.49-17.36 24.26-34.23 32.09 0.72 15.2-2 49.76-31.17 99.16l-0.29 0.48A387.58 387.58 0 0 1 348 451.35c-1.23 1.58-2.54 3.22-4 5-15.66 22.37-35.28 50.28-40.88 57.69-12.31 18.26-25.16 29.13-38.19 32.31a78.88 78.88 0 0 1-18.82 2.49zM98.05 268.45c-7.12 0-13.56 0.89-17.88 3.22-3.39 1.83-4.09 3.9-4.34 5.87-1.81 14.12 20.89 31 42.74 40.64l4.45 2 1.2 4.72c7.13 28.25 19 51.06 32.83 77.48 9.58 18.35 20.44 39.14 30.62 64C214.56 532 239.21 532 260.2 526.91c7.86-1.92 17.26-10.54 26.49-24.27l0.34-0.48c4.1-5.39 18.21-25.3 40.81-57.59l0.46-0.61c1.42-1.74 2.69-3.33 3.88-4.87a363.55 363.55 0 0 0 26-38l0.29-0.48c33.79-57.38 27.93-91 27.63-92.57l-2.23-8.59 8.39-3c15.61-6 25.77-14.2 30.2-24.41a31.86 31.86 0 0 0 2.35-16.26h-60.14l-2.41-1.49c-6.56-4-19-11.1-24.33-12.85-14.66-4.79-15.4-27.26-15.4-63.53a25.2 25.2 0 0 0-0.6-6.14c-14.62 17.46-44.43 46.61-45.76 47.92l-2.92 2.84h-57.79l-0.69-9.26c-2.67-36-8.66-51.47-12.15-57.64-18.69 13-26.14 53.77-27.47 69.73l-0.05 0.56-0.11 0.55c-0.08 0.41-2 10-5.15 20.42-5.09 16.7-10.4 25.65-17.22 29A14 14 0 0 1 140 276c-6-2.91-25.72-7.55-41.95-7.55z m50.7-10.45zM200 152z m48.43 350.6l-2.63-1.38c-13.2-6.88-30.47-17.8-28.14-33.16s22.52-22 39.07-25l2.61-0.48 2.51 0.89c11.86 4.2 19.95 9.58 24.73 16.45l4.65 6.67-5.5 5.83a4.18 4.18 0 0 0-0.39 0.93 41.58 41.58 0 0 1-34 29z m-10.73-31.66c0.86 1.39 3.93 5.12 14.21 10.83 3.89-1.19 10.9-4.62 14.22-14.23a42.69 42.69 0 0 0-8.51-4.37c-10.57 2.22-17.84 5.64-19.92 7.77z m48 1.36z m19.2-96.3a24.45 24.45 0 0 1-15.26-5.44l-1.31-1-0.89-1.4c-5.78-9-7.16-23.37-3.36-34.93 2.91-8.85 8.73-15.34 16.39-18.27 9-3.46 15.68-1.22 19.66 1.26 10.79 6.74 12.64 21.79 12.9 24.73l0.09 1-0.12 1c-0.41 3.48-1.7 9.53-3.93 19.49l-0.83 3.69-3.06 2.22c-7.83 5.72-14.64 7.65-20.28 7.65z m-1.45-20.28c1.28 0.46 3.38 0.48 7-1.57 1.1-5 2.12-9.74 2.56-12.45-0.59-3.94-2.33-7.94-3.46-8.55a5.44 5.44 0 0 0-1.92 0.46c-2 0.76-3.51 2.72-4.54 5.84a26.42 26.42 0 0 0 0.36 16.28z m-108.6 15.58l-3-2.48c-12.38-10.09-14.62-25-6.15-40.93 5.82-10.91 13.15-13.1 18.31-13 9.45 0.16 18.07 8 25.61 23.41l1.28 2.7-0.4 3c-1.41 10.49-5 17.9-10.59 22a16.68 16.68 0 0 1-9.27 3.34 85 85 0 0 1-11.88 1.68z m8.45-34c-3.67 6.9-3.2 10.74-1.45 13.34q2.7-0.39 5.57-1l1-0.23a16.42 16.42 0 0 0 1.74-5.07 37.55 37.55 0 0 0-6-8.5c-0.26 0.39-0.55 0.88-0.88 1.49z" fill="#9A9A9A" p-id="14411"></path><path d="M246.45 625.41c-13.86 0-32.54-6.49-43.81-36.94-6.53-17.61-8.31-37.32-9.08-45.73-0.07-0.82-0.13-1.53-0.19-2.13L190.84 515 210 532.18c1.7 1.5 39 33.78 73.24-0.42l17.33-17.33-0.25 24.51a170.77 170.77 0 0 1-6.14 40.81c-10.86 37.46-31.69 45.5-47.26 45.66z m-30.61-65.91c5.17 30.49 15.45 45.91 30.64 45.91h0.23c19.9-0.2 28-25.67 31.35-45.07-18.62 9.7-36.57 8-49.74 4.07a85.4 85.4 0 0 1-12.48-4.91zM839.93 889.39a22.93 22.93 0 0 1-11.2-2.81c-19.67-10.76-16.05-45.58-14.47-56 1.71-11.28 6.1-24.75 10.34-37.78 3.95-12.15 9.87-30.33 8.92-36.09-5.92-9.75-57-51.38-105.56-88.07-26.61 13.88-80.13 23-159.38 27.2-50.76 2.67-97.74 2.48-114.46 2.29-36.54 75.59-71.79 127-104.81 152.68-27.31 21.28-44.07 17.62-47.15 16.67l-4.22-1.3-1.88-4c-6-12.75 3.46-49.82 7.82-65.16 5.82-20.5 19.1-61 42.66-102 33.65-58.49 31.62-132 31-156.21-0.08-2.86-0.14-5.11-0.14-6.84 0-0.28-0.21-7.08-18.08-29-9.76-12-19.62-22.08-19.72-22.18l-7.85-8 8.87-6.87c29.71-23.05 63.72-102.32 64.06-103.12l5.16-12.12 10.29 8.23c47.2 37.8 102 56 139.64 64.65 41.09 9.42 71.33 9.79 71.63 9.79h0.75l0.76 0.12c46.69 7.53 84.9 1.9 121.84-3.55 38.91-5.74 75.65-11.16 118.1-0.92 85.9 20.73 95.12 74.26 95.47 76.52l1.6 10.34-10.45 1.14c-17.75 1.93-41.85 14.9-55.68 39.54-8.66 15.41-15.79 40.54-0.63 72.75 34.22 72.74 33.93 126.72 32 137.2l-0.18 1A179.43 179.43 0 0 1 876.12 871c-5.78 5.05-21 18.39-36.19 18.39zM729 644.4l5.67 4.26c0.27 0.2 28.1 21.12 56 43.46 58.8 47 60.81 54.43 62 58.84 2.84 10.39-1.61 25-9.09 48-4 12.26-8.12 24.94-9.59 34.59-2.73 18 0.08 33.14 4.3 35.45 2.21 1.21 9.88-0.18 24.6-13.08 28.09-24.64 45.71-55.61 52.36-92.07l0.19-1c1.32-7.12 1.36-57.47-30.42-125-14.65-31.15-14.19-63.48 1.29-91.06 12.78-22.78 35.41-40.64 58.84-47.25a67.62 67.62 0 0 0-9.27-14.09c-14.3-16.92-37.75-29.7-67.8-36.95-38.67-9.34-73.56-4.19-110.49 1.25-38.26 5.65-77.82 11.48-127.23 3.63-5.26-0.1-34.86-1.09-74.7-10.18-37.15-8.48-90.13-25.82-137.9-60.82-10.05 21.72-33 67.95-56.82 92.07 3.84 4.2 8.8 9.81 13.8 15.94C395 515.19 397.36 526 397.36 532c0 1.45 0.05 3.59 0.13 6.29 0.7 25.56 2.84 103.35-33.61 166.73-21.88 38.08-34.51 75.92-40.08 95.08-6.69 23-9.15 38.93-9.67 47.38 16-4.1 60.13-28.2 124.71-163.74l2.78-5.82 6.45 0.13c62.24 1.26 233-1.62 275-29.71z" fill="#9A9A9A" p-id="14412"></path><path d="M464.72 886l-20.38-18.26 6.17-174h83.77l-2.94 12.32c-0.09 0.4-9.64 40.39-21.26 81.21-6.86 24.1-13.11 43.81-18.57 58.6-9.95 26.93-15.7 33.35-20.43 36.27z m5.1-172.31l-5.13 144.61c4.67-9.34 13.15-30.59 26.8-78.79 7.35-26 13.79-51.31 17.39-65.78zM711.1 894.38V669.23l10.49 0.51c41.29 2 78.5 58.19 82.6 64.58l-8.05 5.2 0.35 10.21c-1.09 0.28-5.56 4-10.65 16.87s-9.3 30.77-12.3 52.1c-7.32 52.13-46.91 69.2-48.59 69.9z m20-202.4v168.65c8.95-8.16 19.48-22.23 22.64-44.72 4.26-30.25 12.34-65.29 27.54-79.6C769.38 720.13 750 698.9 731.1 692z" fill="#9A9A9A" p-id="14413"></path></svg>