<?xml version="1.0" standalone="no"?><!DOCTYPE svg PUBLIC "-//W3C//DTD SVG 1.1//EN" "http://www.w3.org/Graphics/SVG/1.1/DTD/svg11.dtd"><svg t="1533295806984" class="icon" style="" viewBox="0 0 1024 1024" version="1.1" xmlns="http://www.w3.org/2000/svg" p-id="72731" xmlns:xlink="http://www.w3.org/1999/xlink" width="24" height="24"><defs><style type="text/css"></style></defs><path d="M512 1008.826c-67.042 0-132.114-13.146-193.407-39.070-59.169-25.026-112.295-60.841-157.904-106.447-45.606-45.606-81.421-98.73-106.447-157.902-25.925-61.294-39.070-126.365-39.070-193.407s13.146-132.114 39.070-193.407c25.026-59.169 60.841-112.295 106.447-157.902 45.607-45.606 98.734-81.418 157.904-106.447 61.294-25.925 126.365-39.070 193.407-39.070s132.114 13.146 193.407 39.070c59.169 25.026 112.297 60.841 157.902 106.447s81.421 98.73 106.447 157.902c25.925 61.294 39.070 126.365 39.070 193.407s-13.146 132.114-39.070 193.407c-25.027 59.169-60.841 112.295-106.447 157.902s-98.73 81.422-157.902 106.447c-61.292 25.925-126.362 39.070-193.407 39.070zM512 146.157c-201.727 0-365.843 164.117-365.843 365.843s164.117 365.842 365.843 365.842 365.843-164.117 365.843-365.842c0-201.727-164.117-365.843-365.843-365.843z" p-id="72732" fill="#dbdbdb"></path></svg>