<?xml version="1.0" standalone="no"?><!DOCTYPE svg PUBLIC "-//W3C//DTD SVG 1.1//EN" "http://www.w3.org/Graphics/SVG/1.1/DTD/svg11.dtd"><svg t="1533300959185" class="icon" style="" viewBox="0 0 1024 1024" version="1.1" xmlns="http://www.w3.org/2000/svg" p-id="78947" xmlns:xlink="http://www.w3.org/1999/xlink" width="40" height="40"><defs><style type="text/css"></style></defs><path d="M759.808 391.168c-69.632 0-143.36 67.584-227.328 75.776v-38.912c0-96.256 67.584-192.512 180.224-192.512h20.48c102.4 0 208.896-86.016 221.184-233.472h-36.864c-10.24 122.88-98.304 194.56-184.32 194.56h-20.48c-133.12 0-215.04 118.784-215.04 231.424v38.912c-86.016-10.24-157.696-75.776-227.328-75.776-77.824 0-268.288 157.696-268.288 468.992 0 157.696 100.352 161.792 112.64 161.792h2.048c61.44 0 118.784-30.72 190.464-108.544 71.68-75.776 100.352-96.256 151.552-96.256h108.544c51.2 0 79.872 20.48 151.552 96.256 71.68 75.776 129.024 108.544 190.464 108.544h2.048c12.288 0 112.64-4.096 112.64-161.792 0-311.296-190.464-468.992-264.192-468.992zM911.36 983.04c-53.248 0-102.4-28.672-165.888-96.256-69.632-73.728-108.544-106.496-178.176-106.496H458.752c-69.632 0-106.496 32.768-178.176 106.496-63.488 67.584-112.64 96.256-163.84 96.256h-2.048c-18.432 0-75.776-8.192-75.776-122.88 0-296.96 182.272-430.08 229.376-430.08 26.624 0 59.392 16.384 94.208 32.768 45.056 20.48 94.208 45.056 151.552 45.056 57.344 0 106.496-24.576 151.552-45.056 34.816-16.384 67.584-32.768 94.208-32.768 47.104 0 229.376 133.12 229.376 430.08-2.048 114.688-59.392 122.88-77.824 122.88zM294.912 546.816h-36.864v77.824H184.32v38.912h73.728v77.824h36.864v-77.824h73.728V624.64h-73.728v-77.824z m382.976 38.912c-30.72 0-55.296 26.624-55.296 57.344 0 32.768 24.576 57.344 55.296 57.344s55.296-26.624 55.296-57.344c-2.048-32.768-24.576-57.344-55.296-57.344z m0 75.776c-10.24 0-18.432-8.192-18.432-18.432s8.192-18.432 18.432-18.432 18.432 8.192 18.432 18.432-8.192 18.432-18.432 18.432z m145.408-36.864c-30.72 0-55.296 26.624-55.296 57.344 0 32.768 24.576 57.344 55.296 57.344s55.296-26.624 55.296-57.344c0-32.768-24.576-57.344-55.296-57.344z m0 75.776c-10.24 0-18.432-8.192-18.432-18.432s8.192-18.432 18.432-18.432 18.432 8.192 18.432 18.432-8.192 18.432-18.432 18.432z" p-id="78948" fill="#1296db"></path></svg>