<?xml version="1.0" standalone="no"?><!DOCTYPE svg PUBLIC "-//W3C//DTD SVG 1.1//EN" "http://www.w3.org/Graphics/SVG/1.1/DTD/svg11.dtd"><svg t="1533293864120" class="icon" style="" viewBox="0 0 1024 1024" version="1.1" xmlns="http://www.w3.org/2000/svg" p-id="53560" xmlns:xlink="http://www.w3.org/1999/xlink" width="32" height="32"><defs><style type="text/css"></style></defs><path d="M512 962.255c-60.774 0-119.74-11.908-175.263-35.393-53.618-22.679-101.768-55.142-143.113-96.486-41.344-41.344-73.807-89.495-96.486-143.113C73.653 631.74 61.746 572.773 61.746 512c0-60.773 11.908-119.74 35.392-175.263 22.68-53.618 55.142-101.767 96.486-143.112s89.495-73.807 143.113-96.487c55.522-23.485 114.49-35.392 175.262-35.392 60.775 0 119.742 11.909 175.263 35.392 53.617 22.68 101.768 55.142 143.114 96.487 41.343 41.345 73.807 89.494 96.485 143.112 23.485 55.523 35.393 114.49 35.393 175.263 0 60.774-11.908 119.741-35.393 175.263-22.678 53.617-55.142 101.767-96.485 143.113-41.345 41.344-89.496 73.807-143.114 96.486-55.521 23.485-114.488 35.393-175.263 35.393z m0-859.577c-55.266 0-108.868 10.819-159.318 32.159-48.74 20.615-92.516 50.133-130.114 87.731s-67.116 81.375-87.732 130.114c-21.34 50.45-32.159 104.052-32.159 159.318s10.82 108.867 32.16 159.316c20.615 48.74 50.132 92.517 87.73 130.115 37.599 37.6 81.376 67.117 130.115 87.731 50.45 21.34 104.052 32.16 159.317 32.16s108.868-10.82 159.317-32.16c48.74-20.616 92.516-50.132 130.114-87.731 37.6-37.598 67.117-81.374 87.731-130.115 21.34-50.45 32.16-104.051 32.16-159.316s-10.82-108.868-32.16-159.318c-20.615-48.739-50.131-92.516-87.73-130.114-37.599-37.598-81.375-67.116-130.115-87.731-50.449-21.34-104.05-32.16-159.317-32.16z" p-id="53561" fill="#8a8a8a"></path><path d="M754.585 269.424a10.235 10.235 0 0 0-12.787-1.36L455.792 452.747a10.25 10.25 0 0 0-3.045 3.045L268.052 741.779a10.232 10.232 0 0 0 8.6 15.785c1.917 0 3.845-0.536 5.548-1.637L568.195 571.24a10.247 10.247 0 0 0 3.046-3.044L755.945 282.21a10.23 10.23 0 0 0-1.36-12.786zM512 554.851c-23.628 0-42.85-19.223-42.85-42.851s19.222-42.85 42.85-42.85S554.85 488.371 554.85 512s-19.222 42.85-42.85 42.85z" p-id="53562" fill="#8a8a8a"></path></svg>