<?xml version="1.0" standalone="no"?><!DOCTYPE svg PUBLIC "-//W3C//DTD SVG 1.1//EN" "http://www.w3.org/Graphics/SVG/1.1/DTD/svg11.dtd"><svg t="1533516712885" class="icon" style="" viewBox="0 0 1024 1024" version="1.1" xmlns="http://www.w3.org/2000/svg" p-id="19055" xmlns:xlink="http://www.w3.org/1999/xlink" width="30" height="30"><defs><style type="text/css"></style></defs><path d="M1024.2 290.8c0-106.3-85.9-192.2-192.2-192.2-62.4 0-120.7 30.7-156.4 80.8-49.6-22.5-103.8-34.3-161.6-34.3-58.3 0-113.5 11.8-163.6 35.3-35.8-50.6-93.6-81.8-157-81.8C87.6 98.6 1.2 184.5 1.2 290.8c0 80.8 52.1 152.4 125.8 179.4-4.1 18.4-7.7 36.8-9.7 54.7-12.8 106.8-14.8 216.3 55.7 296 62.4 70.5 173.8 104.8 340.5 104.8 167.2 0 278.6-34.3 341.5-105.3 71.1-80.3 67.5-194.3 55.2-295.5-2-18.4-5.6-36.8-9.7-55.2 73.6-27.5 123.7-97.6 123.7-178.9zM302 584c-29.1 0-52.7-29.5-52.7-65.8 0-36.4 23.6-65.8 52.7-65.8s52.7 29.5 52.7 65.8S331.1 584 302 584z m210.7 237.9c-79.4 0-143.7-48.3-143.7-107.8s64.3-107.8 143.7-107.8c79.4 0 143.7 48.3 143.7 107.8s-64.3 107.8-143.7 107.8zM723.4 584c-29.1 0-52.7-29.5-52.7-65.8 0-36.4 23.6-65.8 52.7-65.8s52.7 29.5 52.7 65.8-23.6 65.8-52.7 65.8z" p-id="19056" fill="#d81e06"></path><path d="M469 630.4c-26.5 0-48 16-48 35.9 0 19.7 21.4 35.9 48 35.9 26.5 0 48-16.2 48-35.9 0-19.8-21.5-35.9-48-35.9z" p-id="19057" fill="#d81e06"></path></svg>